<svg width="363" height="288" viewBox="0 0 363 288" fill="none" xmlns="http://www.w3.org/2000/svg">
<g filter="url(#filter0_d_303_141)">
<rect x="100" y="36" width="227" height="152" rx="12.7419" fill="#0B1A20" shape-rendering="crispEdges"/>
<path d="M152.545 104.477C159.651 104.477 165.182 98.8453 165.182 91.7391C165.182 84.5993 159.651 79.5043 152.545 79.5043C145.405 79.5043 139.908 84.5993 139.908 91.7391C139.908 98.8453 145.405 104.477 152.545 104.477ZM160.891 91.9402C160.891 96.633 157.875 100.22 152.511 100.22C147.182 100.22 144.165 96.633 144.165 91.9402C144.165 87.2474 147.182 83.7948 152.545 83.7948C157.841 83.7948 160.891 87.2474 160.891 91.9402ZM171.751 102.164C171.751 100.89 170.745 99.8844 169.438 99.8844C168.164 99.8844 167.192 100.89 167.192 102.164C167.192 103.438 168.164 104.443 169.438 104.443C170.745 104.443 171.751 103.438 171.751 102.164ZM186.392 104.477C193.498 104.477 199.029 98.8453 199.029 91.7391C199.029 84.5993 193.498 79.5043 186.392 79.5043C179.252 79.5043 173.755 84.5993 173.755 91.7391C173.755 98.8453 179.252 104.477 186.392 104.477ZM194.739 91.9402C194.739 96.633 191.722 100.22 186.359 100.22C181.029 100.22 178.012 96.633 178.012 91.9402C178.012 87.2474 181.029 83.7948 186.392 83.7948C191.688 83.7948 194.739 87.2474 194.739 91.9402ZM207.64 104.175L224.266 83.8283C224.937 83.0239 225.071 82.454 225.071 81.8171C225.071 80.711 224.3 79.8059 222.389 79.8059H201.908V84.063H218.769L202.109 104.175H207.64ZM246.318 104.175C251.077 104.175 254.161 101.259 254.161 96.8006C254.161 93.9514 252.552 92.0072 250.34 91.3033C252.15 90.7335 253.726 89.1915 253.726 86.1077C253.726 81.9512 250.575 79.8059 245.848 79.8059H235.792C231.066 79.8059 227.949 81.9512 227.949 86.1077C227.949 89.1915 229.491 90.7335 231.301 91.3033C229.088 92.0072 227.479 93.9514 227.479 96.8006C227.479 101.259 230.563 104.175 235.323 104.175H246.318ZM246.15 93.5827C248.53 93.5827 249.871 94.7223 249.871 96.7335C249.871 98.8453 247.96 99.9179 245.278 99.9179H236.362C233.681 99.9179 231.77 98.8453 231.77 96.7335C231.77 94.7223 233.111 93.5827 235.491 93.5827H246.15ZM245.044 84.0295C247.826 84.0295 249.401 84.8004 249.401 87.0463C249.401 89.158 248.262 89.996 245.848 89.996H235.792C233.379 89.996 232.239 89.158 232.239 87.0463C232.239 84.8004 233.815 84.0295 236.597 84.0295H245.044ZM263.595 91.7726C267.148 91.7726 269.93 88.9234 269.93 85.4038C269.93 81.8171 267.148 79.2696 263.595 79.2696C260.008 79.2696 257.293 81.8171 257.293 85.4038C257.293 88.9234 260.008 91.7726 263.595 91.7726ZM267.785 85.5043C267.785 87.8507 266.243 89.6273 263.595 89.6273C260.913 89.6273 259.405 87.8507 259.405 85.5043C259.405 83.1579 260.947 81.4149 263.595 81.4149C266.243 81.4149 267.785 83.1579 267.785 85.5043ZM262.053 106.421L284.009 78.3311H281.16L259.137 106.421H262.053ZM280.489 104.678C284.042 104.678 286.824 101.829 286.824 98.309C286.824 94.7223 284.042 92.1748 280.489 92.1748C276.903 92.1748 274.187 94.7223 274.187 98.309C274.187 101.829 276.903 104.678 280.489 104.678ZM284.679 98.4095C284.679 100.756 283.137 102.533 280.489 102.533C277.808 102.533 276.299 100.756 276.299 98.4095C276.299 96.0631 277.841 94.3201 280.489 94.3201C283.137 94.3201 284.679 96.0631 284.679 98.4095Z" fill="white"/>
<path d="M160.522 148.825L156.778 135.056C156.577 134.352 156.174 134.009 155.55 134.009C155.007 134.009 154.564 134.311 154.322 134.875L149.813 145.222L145.304 134.875C145.062 134.311 144.559 134.009 144.016 134.009C143.331 134.009 142.929 134.352 142.747 135.056L138.983 148.825H141.499L144.297 138.539L148.424 148.06C148.686 148.684 149.129 149.026 149.733 149.026C150.357 149.026 150.759 148.684 151.041 148.06L155.188 138.539L157.986 148.825H160.522ZM180.556 148.825L172.122 134.815C171.82 134.311 171.458 133.989 170.894 133.989C170.33 133.989 169.948 134.311 169.646 134.815L161.231 148.825H164.15L170.793 137.592L174.054 143.068H169.565L168.358 145.141H175.282L177.476 148.825H180.556ZM198.095 148.825L188.211 141.337L197.793 134.191H193.867L186.117 140.149C185.594 140.552 185.473 140.874 185.473 141.317C185.473 141.719 185.554 142.041 185.997 142.383L194.189 148.825H198.095ZM184.688 148.825V134.191H182.132V148.825H184.688ZM212.83 148.825V146.269H202.282V136.747H212.81V134.191H199.745V148.825H212.83ZM212.266 142.464V140.31H204.154V142.464H212.266ZM232.231 148.825L227.822 144.376C229.715 143.652 230.842 141.941 230.842 139.525C230.842 136.264 228.869 134.191 225.528 134.191H215.02V148.825H217.556V136.747H225.528C227.279 136.747 228.326 137.673 228.326 139.565C228.326 141.457 227.359 142.504 225.528 142.504H219.428V144.759H224.904L228.608 148.825H232.231Z" fill="#5282DF"/>
<rect x="101.274" y="37.2742" width="224.452" height="149.452" rx="11.4677" stroke="url(#paint0_linear_303_141)" stroke-width="2.54839" shape-rendering="crispEdges"/>
</g>
<defs>
<filter id="filter0_d_303_141" x="0" y="0" width="363" height="288" filterUnits="userSpaceOnUse" color-interpolation-filters="sRGB">
<feFlood flood-opacity="0" result="BackgroundImageFix"/>
<feColorMatrix in="SourceAlpha" type="matrix" values="0 0 0 0 0 0 0 0 0 0 0 0 0 0 0 0 0 0 127 0" result="hardAlpha"/>
<feOffset dx="-32" dy="32"/>
<feGaussianBlur stdDeviation="34"/>
<feComposite in2="hardAlpha" operator="out"/>
<feColorMatrix type="matrix" values="0 0 0 0 0 0 0 0 0 0 0 0 0 0 0 0 0 0 0.45 0"/>
<feBlend mode="normal" in2="BackgroundImageFix" result="effect1_dropShadow_303_141"/>
<feBlend mode="normal" in="SourceGraphic" in2="effect1_dropShadow_303_141" result="shape"/>
</filter>
<linearGradient id="paint0_linear_303_141" x1="193.339" y1="216.576" x2="191.854" y2="35.9938" gradientUnits="userSpaceOnUse">
<stop stop-color="#213136"/>
<stop offset="1" stop-color="#213136" stop-opacity="0"/>
</linearGradient>
</defs>
</svg>
