<svg width="415" height="241" viewBox="0 0 415 241" fill="none" xmlns="http://www.w3.org/2000/svg">
<g filter="url(#filter0_d_303_156)">
<rect x="88" y="36" width="278.25" height="105" rx="10.9375" fill="#EFB91C" shape-rendering="crispEdges"/>
<path d="M132.984 69.9375L130.543 60.96C130.411 60.5006 130.149 60.2775 129.742 60.2775C129.388 60.2775 129.099 60.4744 128.941 60.8419L126.001 67.5881L123.061 60.8419C122.904 60.4744 122.576 60.2775 122.221 60.2775C121.775 60.2775 121.513 60.5006 121.394 60.96L118.94 69.9375H120.581L122.405 63.2306L125.096 69.4387C125.266 69.8456 125.555 70.0688 125.949 70.0688C126.356 70.0688 126.618 69.8456 126.802 69.4387L129.506 63.2306L131.33 69.9375H132.984ZM138.372 69.9375V66.315L143.451 60.3956H141.325L137.597 64.7925L133.883 60.3956H131.639L136.705 66.315V69.9375H138.372ZM155.47 69.9375C157.334 69.9375 158.541 68.7956 158.541 67.05C158.541 65.9344 157.911 65.1731 157.045 64.8975C157.754 64.6744 158.371 64.0706 158.371 62.8631C158.371 61.2356 157.137 60.3956 155.273 60.3956H148.291V69.9375H155.47ZM155.404 65.79C156.336 65.79 156.848 66.2362 156.848 67.0237C156.848 67.9556 155.982 68.2837 154.788 68.2837H149.958V62.0625H154.643C155.877 62.0625 156.678 62.22 156.678 63.2306C156.678 64.0575 156.231 64.3856 155.286 64.3856H151.165V65.79H155.404ZM171.207 69.9375L165.707 60.8025C165.51 60.4744 165.274 60.2644 164.907 60.2644C164.539 60.2644 164.29 60.4744 164.093 60.8025L158.607 69.9375H160.51L164.841 62.6137L166.967 66.1837H164.04L163.253 67.5356H167.768L169.199 69.9375H171.207ZM180.319 69.9375V68.2706H173.901V60.3956H172.234V69.9375H180.319ZM193.471 69.9375L187.971 60.8025C187.774 60.4744 187.538 60.2644 187.171 60.2644C186.803 60.2644 186.554 60.4744 186.357 60.8025L180.871 69.9375H182.774L187.105 62.6137L189.231 66.1837H186.304L185.517 67.5356H190.032L191.462 69.9375H193.471ZM202.753 69.7012C202.99 69.9375 203.239 70.0556 203.515 70.0556C204 70.0556 204.341 69.6881 204.341 69.0581V60.3169H202.753V67.2994L196.02 60.6187C195.771 60.3694 195.561 60.2775 195.311 60.2775C194.786 60.2775 194.458 60.6581 194.458 61.275V69.9375H196.046V62.955L202.753 69.7012ZM215.485 69.9375V68.2706H210.314C208.595 68.2706 207.348 66.945 207.348 65.1469C207.348 63.3356 208.608 62.0625 210.314 62.0625H215.485V60.3956H210.314C207.65 60.3956 205.681 62.2594 205.681 65.0681C205.681 67.8375 207.65 69.9375 210.314 69.9375H215.485ZM225.37 69.9375V68.2706H218.492V62.0625H225.356V60.3956H216.838V69.9375H225.37ZM225.002 65.79V64.3856H219.713V65.79H225.002Z" fill="#070B0F"/>
<path d="M132.958 112.043C136.455 112.043 138.105 109.967 138.105 107.181C138.105 103.91 136.285 102.375 132.958 102.375H130.142V98.3081H137.308V95.4075H130.142V93.3884H128.55V95.4075H125.336C122.038 95.4075 120.246 97.3981 120.246 100.043C120.246 102.801 122.18 104.763 125.308 104.763H128.55V109.086H120.473V112.043H128.55V114.062H130.142V112.043H132.958ZM130.142 109.086V104.763H132.958C134.493 104.763 135.346 105.474 135.346 106.953C135.346 108.261 134.522 109.086 132.958 109.086H130.142ZM128.55 102.375H125.336C124.085 102.375 123.26 101.607 123.26 100.327C123.26 99.1044 124.028 98.3081 125.336 98.3081H128.55V102.375ZM155.256 114.062C159.295 114.062 161.911 111.56 161.911 107.806C161.911 105.389 160.546 103.74 158.669 103.142C160.205 102.659 161.513 101.351 161.513 98.7347C161.513 95.2084 158.868 93.3884 154.858 93.3884H141.18V96.9716H154.147C156.536 96.9716 157.873 97.6256 157.873 99.5309C157.873 101.322 156.906 102.033 154.858 102.033H145.986V105.076H155.114C157.133 105.076 158.242 106.015 158.242 107.721C158.242 109.512 156.65 110.451 154.375 110.451H141.095V114.062H155.256ZM169.423 114.062L183.528 96.8009C184.096 96.1184 184.21 95.635 184.21 95.0947C184.21 94.1562 183.556 93.3884 181.935 93.3884H164.56V97H178.864L164.73 114.062H169.423ZM184.345 117.418L185.767 110.024H182.127V117.418H184.345ZM209.194 114.062V110.451H192.757V107.749C192.757 105.986 193.78 105.076 195.714 105.076H203.222C207.146 105.076 209.535 102.602 209.535 99.1897C209.535 95.8625 207.288 93.3884 203.193 93.3884H189.515V97H203.193C204.814 97 205.809 97.9669 205.809 99.5309C205.809 101.095 204.757 102.033 203.193 102.033H195.714C191.562 102.033 189.344 103.996 189.344 108.005V114.062H209.194ZM231.352 114.062V108.546H234.338V105.076H231.352V93.3884H227.74V105.076H219.181C217.019 105.076 215.996 104.28 215.996 101.891V93.3884H212.384V101.92C212.384 106.498 214.858 108.546 219.181 108.546H227.74V114.062H231.352ZM246.956 114.318C252.985 114.318 257.677 109.541 257.677 103.512C257.677 97.455 252.985 93.1325 246.956 93.1325C240.899 93.1325 236.235 97.455 236.235 103.512C236.235 109.541 240.899 114.318 246.956 114.318ZM254.037 103.683C254.037 107.664 251.478 110.707 246.928 110.707C242.406 110.707 239.847 107.664 239.847 103.683C239.847 99.7016 242.406 96.7725 246.956 96.7725C251.449 96.7725 254.037 99.7016 254.037 103.683ZM261.743 117.418L263.165 110.024H259.525V117.418H261.743ZM275.588 114.318C281.617 114.318 286.309 109.541 286.309 103.512C286.309 97.455 281.617 93.1325 275.588 93.1325C269.531 93.1325 264.867 97.455 264.867 103.512C264.867 109.541 269.531 114.318 275.588 114.318ZM282.669 103.683C282.669 107.664 280.11 110.707 275.56 110.707C271.038 110.707 268.479 107.664 268.479 103.683C268.479 99.7016 271.038 96.7725 275.588 96.7725C280.081 96.7725 282.669 99.7016 282.669 103.683ZM299.416 114.318C305.444 114.318 310.137 109.541 310.137 103.512C310.137 97.455 305.444 93.1325 299.416 93.1325C293.359 93.1325 288.695 97.455 288.695 103.512C288.695 109.541 293.359 114.318 299.416 114.318ZM306.497 103.683C306.497 107.664 303.937 110.707 299.387 110.707C294.866 110.707 292.306 107.664 292.306 103.683C292.306 99.7016 294.866 96.7725 299.416 96.7725C303.909 96.7725 306.497 99.7016 306.497 103.683ZM323.243 114.318C329.272 114.318 333.964 109.541 333.964 103.512C333.964 97.455 329.272 93.1325 323.243 93.1325C317.186 93.1325 312.522 97.455 312.522 103.512C312.522 109.541 317.186 114.318 323.243 114.318ZM330.324 103.683C330.324 107.664 327.765 110.707 323.215 110.707C318.693 110.707 316.134 107.664 316.134 103.683C316.134 99.7016 318.693 96.7725 323.243 96.7725C327.736 96.7725 330.324 99.7016 330.324 103.683Z" fill="#070B0F"/>
<rect x="89.0938" y="37.0938" width="276.062" height="102.812" rx="9.84375" stroke="url(#paint0_linear_303_156)" stroke-width="2.1875" shape-rendering="crispEdges"/>
</g>
<defs>
<filter id="filter0_d_303_156" x="0" y="0" width="414.25" height="241" filterUnits="userSpaceOnUse" color-interpolation-filters="sRGB">
<feFlood flood-opacity="0" result="BackgroundImageFix"/>
<feColorMatrix in="SourceAlpha" type="matrix" values="0 0 0 0 0 0 0 0 0 0 0 0 0 0 0 0 0 0 127 0" result="hardAlpha"/>
<feOffset dx="-20" dy="32"/>
<feGaussianBlur stdDeviation="34"/>
<feComposite in2="hardAlpha" operator="out"/>
<feColorMatrix type="matrix" values="0 0 0 0 0 0 0 0 0 0 0 0 0 0 0 0 0 0 0.45 0"/>
<feBlend mode="normal" in2="BackgroundImageFix" result="effect1_dropShadow_303_156"/>
<feBlend mode="normal" in="SourceGraphic" in2="effect1_dropShadow_303_156" result="shape"/>
</filter>
<linearGradient id="paint0_linear_303_156" x1="202.412" y1="160.74" x2="201.834" y2="35.99" gradientUnits="userSpaceOnUse">
<stop stop-color="#EFB91C"/>
<stop offset="1" stop-color="#213136" stop-opacity="0"/>
</linearGradient>
</defs>
</svg>
