<svg width="568" height="294" viewBox="0 0 568 294" fill="none" xmlns="http://www.w3.org/2000/svg">
<rect x="1.47" y="1.47" width="565.06" height="290.98" rx="13.23" fill="#0B1A20"/>
<g clip-path="url(#clip0_303_145)">
<path d="M66.2635 60.1416C68.7132 60.1328 74.0692 60.1129 74.0074 56.7062C73.9479 53.2223 68.8036 53.4318 66.2965 53.5354C66.0165 53.5464 65.7673 53.5575 65.5645 53.5597L65.6791 60.146C65.8445 60.1416 66.043 60.1416 66.2635 60.1416V60.1416ZM66.0033 50.5432C68.0473 50.541 72.508 50.5366 72.4551 47.4386C72.3978 44.27 68.1134 44.4574 66.0209 44.55C65.785 44.5611 65.5799 44.5699 65.4079 44.5721L65.5115 50.5454L66.0033 50.5432Z" fill="#5180DB"/>
<path fill-rule="evenodd" clip-rule="evenodd" d="M61.2171 78.5888C75.3952 82.1234 89.7542 73.4952 93.2888 59.3215C96.8234 45.1456 88.1931 30.7866 74.0149 27.2542C59.8456 23.7174 45.4866 32.3477 41.9542 46.5259C38.4196 60.6996 47.0478 75.0586 61.2193 78.591L61.2171 78.5888ZM70.6589 41.0597C74.5265 41.3331 77.6047 42.4665 78.0082 46.0033C78.308 48.592 77.2496 50.1686 75.532 51.0814C78.3985 51.7165 80.2176 53.3812 79.9309 57.1915C79.5759 61.9212 76.0766 63.2508 71.0536 63.6257L71.1374 68.5869L68.1474 68.642L68.0614 63.7469C67.2875 63.7602 66.4937 63.769 65.6712 63.7646L65.7594 68.6817L62.7694 68.7347L62.6812 63.7646L61.8367 63.7712C61.4089 63.7734 60.9767 63.7756 60.5446 63.7844L56.6505 63.8506L57.1819 60.2697C57.1819 60.2697 59.3958 60.2652 59.3561 60.2322C60.2028 60.2145 60.4167 59.6038 60.463 59.2201L60.3285 51.3769L60.5424 51.3725H60.6438C60.5384 51.3604 60.4323 51.3553 60.3263 51.3571L60.2293 45.7564C60.1036 45.1522 59.6978 44.4554 58.4873 44.4774C58.5204 44.4333 56.3132 44.5149 56.3132 44.5149L56.2558 41.3221L60.3836 41.2515V41.267C61.0032 41.2559 61.6405 41.2339 62.2865 41.2096L62.2027 36.2947L65.1927 36.244L65.2765 41.0597C66.0747 41.031 66.8773 41.0002 67.6645 40.9869L67.5807 36.2021L70.5729 36.1492L70.6589 41.0641V41.0597Z" fill="#5282DF"/>
</g>
<path d="M137.295 66.42C141.887 66.42 144.863 63.6064 144.863 59.3052C144.863 56.5563 143.31 54.6806 141.176 54.0014C142.922 53.4516 144.442 51.964 144.442 48.9887C144.442 44.9786 141.402 42.9088 136.81 42.9088H119.605V66.42H137.295ZM137.133 56.2005C139.43 56.2005 140.691 57.3001 140.691 59.2405C140.691 61.5366 138.556 62.3451 135.613 62.3451H123.712V47.016H135.258C138.298 47.016 140.27 47.4041 140.27 49.8942C140.27 51.9317 139.171 52.7402 136.842 52.7402H126.688V56.2005H137.133ZM152.774 66.42V42.9088H148.667V66.42H152.774ZM168.705 66.42V47.016H177.63V42.9088H155.672V47.016H164.597V66.42H168.705ZM203.28 66.42V62.3128H190.538C186.302 62.3128 183.229 59.0465 183.229 54.6159C183.229 50.153 186.334 47.016 190.538 47.016H203.28V42.9088H190.538C183.973 42.9088 179.122 47.5011 179.122 54.4218C179.122 61.2456 183.973 66.42 190.538 66.42H203.28ZM223.075 66.42C229.77 66.42 234.588 61.2456 234.588 54.4218C234.588 47.5981 229.867 42.9088 223.075 42.9088H217.351C210.786 42.9088 205.935 47.5011 205.935 54.4218C205.935 61.2456 210.786 66.42 217.351 66.42H223.075ZM217.351 62.3128C213.115 62.3128 210.042 59.0465 210.042 54.6159C210.042 50.153 213.147 47.016 217.351 47.016H223.075C227.409 47.016 230.481 50.1853 230.481 54.6159C230.481 59.0465 227.409 62.3128 223.075 62.3128H217.351ZM242.246 66.42V42.9088H238.139V66.42H242.246ZM266.876 65.8379C267.458 66.42 268.072 66.711 268.752 66.711C269.948 66.711 270.789 65.8055 270.789 64.2532V42.7148H266.876V59.9196L250.285 43.4586C249.671 42.8441 249.154 42.6177 248.539 42.6177C247.246 42.6177 246.437 43.5556 246.437 45.0756V66.42H250.35V49.2151L266.876 65.8379Z" fill="white"/>
<path d="M66.733 173.817C72.974 173.817 75.9169 170.113 75.9169 165.141C75.9169 159.306 72.6695 156.566 66.733 156.566H61.7097V149.31H74.4962V144.135H61.7097V140.532H58.8683V144.135H53.1346C47.2488 144.135 44.0522 147.686 44.0522 152.405C44.0522 157.327 47.5025 160.828 53.0839 160.828H58.8683V168.54H44.4581V173.817H58.8683V177.42H61.7097V173.817H66.733ZM61.7097 168.54V160.828H66.733C69.4729 160.828 70.9951 162.097 70.9951 164.735C70.9951 167.069 69.5237 168.54 66.733 168.54H61.7097ZM58.8683 156.566H53.1346C50.9021 156.566 49.4306 155.196 49.4306 152.913C49.4306 150.731 50.8006 149.31 53.1346 149.31H58.8683V156.566ZM106.52 177.42C113.725 177.42 118.393 172.955 118.393 166.257C118.393 161.944 115.958 159.001 112.609 157.936C115.349 157.073 117.683 154.739 117.683 150.071C117.683 143.779 112.964 140.532 105.81 140.532H81.404V146.925H104.541C108.804 146.925 111.188 148.092 111.188 151.492C111.188 154.688 109.463 155.957 105.81 155.957H89.979V161.386H106.267C109.869 161.386 111.848 163.061 111.848 166.105C111.848 169.302 109.007 170.976 104.947 170.976H81.2517V177.42H106.52ZM151.737 177.42C159.399 177.42 163.154 172.803 163.154 166.612C163.154 159.458 159.145 155.957 151.737 155.957H130.731V146.976H161.378V140.532H124.084V161.386H151.737C155.137 161.386 157.065 163.01 157.065 166.156C157.065 169.048 155.187 170.976 151.737 170.976H124.084V177.42H151.737ZM174.441 174.376C174.441 172.447 172.918 170.925 170.939 170.925C169.011 170.925 167.54 172.447 167.54 174.376C167.54 176.304 169.011 177.826 170.939 177.826C172.918 177.826 174.441 176.304 174.441 174.376ZM200.155 177.42C210.506 177.42 216.9 171.94 216.9 159.357C216.9 146.722 210.506 140.532 200.155 140.532H188.13C181.585 140.532 177.475 145.505 177.475 152.05C177.475 159.661 181.432 162.908 188.13 162.908H210.151C209.136 168.591 205.686 170.976 200.155 170.976H181.635V177.42H200.155ZM184.02 152.405C184.02 148.955 185.999 147.027 189.196 147.027H200.155C206.396 147.027 209.948 150.274 210.405 157.53H189.196C185.948 157.53 184.02 155.906 184.02 152.405ZM229.956 177.42L255.123 146.621C256.138 145.403 256.341 144.54 256.341 143.576C256.341 141.902 255.174 140.532 252.282 140.532H221.28V146.976H246.802L221.584 177.42H229.956ZM293.679 177.42V167.576H299.006V161.386H293.679V140.532H287.235V161.386H271.962C268.106 161.386 266.279 159.965 266.279 155.703V140.532H259.835V155.754C259.835 163.923 264.25 167.576 271.962 167.576H287.235V177.42H293.679ZM307.669 183.407L310.206 170.215H303.711V183.407H307.669ZM352.005 177.42V170.976H322.677V166.156C322.677 163.01 324.504 161.386 327.954 161.386H341.35C348.352 161.386 352.614 156.972 352.614 150.883C352.614 144.946 348.606 140.532 341.299 140.532H316.893V146.976H341.299C344.191 146.976 345.967 148.701 345.967 151.492C345.967 154.283 344.09 155.957 341.299 155.957H327.954C320.546 155.957 316.589 159.458 316.589 166.612V177.42H352.005ZM376.522 177.877C387.279 177.877 395.651 169.352 395.651 158.595C395.651 147.788 387.279 140.075 376.522 140.075C365.715 140.075 357.394 147.788 357.394 158.595C357.394 169.352 365.715 177.877 376.522 177.877ZM389.157 158.9C389.157 166.003 384.59 171.433 376.472 171.433C368.404 171.433 363.837 166.003 363.837 158.9C363.837 151.796 368.404 146.57 376.522 146.57C384.539 146.57 389.157 151.796 389.157 158.9Z" fill="white"/>
<path d="M51.8843 260.055V253.394H58.4903V251.072H51.8843V244.439H49.5349V251.072H42.9013V253.394H49.5349V260.055H51.8843ZM71.8246 262.709C77.6843 262.709 82.2449 258.065 82.2449 252.206C82.2449 246.318 77.6843 242.117 71.8246 242.117C65.9373 242.117 61.4044 246.318 61.4044 252.206C61.4044 258.065 65.9373 262.709 71.8246 262.709ZM78.707 252.371C78.707 256.241 76.2194 259.198 71.797 259.198C67.4022 259.198 64.9146 256.241 64.9146 252.371C64.9146 248.502 67.4022 245.655 71.8246 245.655C76.1918 245.655 78.707 248.502 78.707 252.371ZM86.1966 265.722L87.5786 258.535H84.0407V265.722H86.1966ZM101.588 262.46C107.227 262.46 110.71 259.475 110.71 252.62C110.71 245.738 107.227 242.366 101.588 242.366H95.0377C91.4721 242.366 89.2333 245.074 89.2333 248.64C89.2333 252.786 91.3892 254.555 95.0377 254.555H107.033C106.481 257.651 104.601 258.95 101.588 258.95H91.4998V262.46H101.588ZM92.7989 248.833C92.7989 246.954 93.8768 245.904 95.6181 245.904H101.588C104.988 245.904 106.923 247.673 107.172 251.625H95.6181C93.8492 251.625 92.7989 250.741 92.7989 248.833ZM118.237 252.233C121.167 252.233 123.461 249.884 123.461 246.982C123.461 244.024 121.167 241.923 118.237 241.923C115.279 241.923 113.04 244.024 113.04 246.982C113.04 249.884 115.279 252.233 118.237 252.233ZM121.692 247.065C121.692 248.999 120.42 250.464 118.237 250.464C116.026 250.464 114.782 248.999 114.782 247.065C114.782 245.13 116.053 243.692 118.237 243.692C120.42 243.692 121.692 245.13 121.692 247.065ZM116.965 264.312L135.069 241.15H132.72L114.561 264.312H116.965ZM132.167 262.875C135.097 262.875 137.391 260.525 137.391 257.623C137.391 254.666 135.097 252.565 132.167 252.565C129.21 252.565 126.971 254.666 126.971 257.623C126.971 260.525 129.21 262.875 132.167 262.875ZM135.622 257.706C135.622 259.641 134.351 261.106 132.167 261.106C129.956 261.106 128.712 259.641 128.712 257.706C128.712 255.771 129.984 254.334 132.167 254.334C134.351 254.334 135.622 255.771 135.622 257.706Z" fill="#838383"/>
<rect x="1.47" y="1.47" width="565.06" height="290.98" rx="13.23" stroke="url(#paint0_linear_303_145)" stroke-width="2.94"/>
<defs>
<linearGradient id="paint0_linear_303_145" x1="233.553" y1="349.177" x2="231.333" y2="-0.0215103" gradientUnits="userSpaceOnUse">
<stop stop-color="#213136"/>
<stop offset="1" stop-color="#213136" stop-opacity="0"/>
</linearGradient>
<clipPath id="clip0_303_145">
<rect width="52.92" height="52.92" fill="white" transform="translate(41.16 26.46)"/>
</clipPath>
</defs>
</svg>
