<svg width="699" height="474" viewBox="0 0 699 474" fill="none" xmlns="http://www.w3.org/2000/svg">
<g filter="url(#filter0_d_303_90)">
<rect x="127" y="18" width="518.77" height="293.159" rx="10.8577" fill="#EFB91C" shape-rendering="crispEdges"/>
<path d="M161.832 63.7448C163.471 63.7448 164.275 62.7567 164.275 61.4321C164.275 59.9011 163.417 59.1519 161.832 59.1519H157.336V57.2301H163.895V55.8512H155.914V60.3137H161.832C162.559 60.3137 162.972 60.6612 162.972 61.3343C162.972 61.9532 162.57 62.3658 161.832 62.3658H155.914V63.7448H161.832ZM169.386 63.8425C171.688 63.8425 173.479 62.0184 173.479 59.7165C173.479 57.4038 171.688 55.7535 169.386 55.7535C167.073 55.7535 165.293 57.4038 165.293 59.7165C165.293 62.0184 167.073 63.8425 169.386 63.8425ZM172.09 59.7817C172.09 61.3018 171.112 62.4635 169.375 62.4635C167.649 62.4635 166.672 61.3018 166.672 59.7817C166.672 58.2616 167.649 57.1433 169.386 57.1433C171.102 57.1433 172.09 58.2616 172.09 59.7817ZM178.484 63.8425C180.785 63.8425 182.577 62.0184 182.577 59.7165C182.577 57.4038 180.785 55.7535 178.484 55.7535C176.171 55.7535 174.39 57.4038 174.39 59.7165C174.39 62.0184 176.171 63.8425 178.484 63.8425ZM181.187 59.7817C181.187 61.3018 180.21 62.4635 178.473 62.4635C176.746 62.4635 175.769 61.3018 175.769 59.7817C175.769 58.2616 176.746 57.1433 178.484 57.1433C180.199 57.1433 181.187 58.2616 181.187 59.7817Z" fill="#070B0F"/>
<path d="M157.336 59.1519H157.119V59.3691H157.336V59.1519ZM157.336 57.2301V57.013H157.119V57.2301H157.336ZM163.895 57.2301V57.4473H164.112V57.2301H163.895ZM163.895 55.8512H164.112V55.634H163.895V55.8512ZM155.914 55.8512V55.634H155.697V55.8512H155.914ZM155.914 60.3137H155.697V60.5309H155.914V60.3137ZM155.914 62.3658V62.1487H155.697V62.3658H155.914ZM155.914 63.7448H155.697V63.9619H155.914V63.7448ZM161.832 63.9619C162.696 63.9619 163.367 63.7005 163.823 63.2374C164.277 62.7755 164.492 62.1378 164.492 61.4321H164.057C164.057 62.051 163.87 62.5696 163.513 62.9329C163.157 63.295 162.607 63.5276 161.832 63.5276V63.9619ZM164.492 61.4321C164.492 60.6264 164.265 59.9899 163.794 59.5579C163.327 59.1291 162.655 58.9348 161.832 58.9348V59.3691C162.594 59.3691 163.143 59.5494 163.501 59.8779C163.855 60.2033 164.057 60.7067 164.057 61.4321H164.492ZM161.832 58.9348H157.336V59.3691H161.832V58.9348ZM157.554 59.1519V57.2301H157.119V59.1519H157.554ZM157.336 57.4473H163.895V57.013H157.336V57.4473ZM164.112 57.2301V55.8512H163.677V57.2301H164.112ZM163.895 55.634H155.914V56.0683H163.895V55.634ZM155.697 55.8512V60.3137H156.131V55.8512H155.697ZM155.914 60.5309H161.832V60.0966H155.914V60.5309ZM161.832 60.5309C162.164 60.5309 162.39 60.6105 162.531 60.7345C162.667 60.8545 162.755 61.0435 162.755 61.3343H163.189C163.189 60.952 163.07 60.6307 162.818 60.4087C162.571 60.1906 162.227 60.0966 161.832 60.0966V60.5309ZM162.755 61.3343C162.755 61.5956 162.671 61.7917 162.53 61.9237C162.388 62.0571 162.161 62.1487 161.832 62.1487V62.583C162.24 62.583 162.584 62.4683 162.827 62.2407C163.071 62.0116 163.189 61.692 163.189 61.3343H162.755ZM161.832 62.1487H155.914V62.583H161.832V62.1487ZM155.697 62.3658V63.7448H156.131V62.3658H155.697ZM155.914 63.9619H161.832V63.5276H155.914V63.9619ZM169.386 64.0596C171.81 64.0596 173.697 62.136 173.697 59.7165H173.262C173.262 61.9007 171.566 63.6253 169.386 63.6253V64.0596ZM173.697 59.7165C173.697 57.2744 171.798 55.5363 169.386 55.5363V55.9706C171.578 55.9706 173.262 57.5333 173.262 59.7165H173.697ZM169.386 55.5363C166.963 55.5363 165.076 57.2747 165.076 59.7165H165.51C165.51 57.5329 167.184 55.9706 169.386 55.9706V55.5363ZM165.076 59.7165C165.076 62.1357 166.951 64.0596 169.386 64.0596V63.6253C167.196 63.6253 165.51 61.9011 165.51 59.7165H165.076ZM171.872 59.7817C171.872 60.4953 171.644 61.1087 171.227 61.5422C170.812 61.9742 170.193 62.2464 169.375 62.2464V62.6807C170.294 62.6807 171.032 62.372 171.54 61.8431C172.047 61.3157 172.307 60.5881 172.307 59.7817H171.872ZM169.375 62.2464C168.563 62.2464 167.947 61.9744 167.533 61.5425C167.118 61.1089 166.889 60.4954 166.889 59.7817H166.454C166.454 60.5881 166.714 61.3155 167.219 61.8428C167.726 62.3718 168.461 62.6807 169.375 62.6807V62.2464ZM166.889 59.7817C166.889 59.0683 167.117 58.4669 167.532 58.0446C167.946 57.6234 168.565 57.3604 169.386 57.3604V56.9261C168.469 56.9261 167.731 57.2223 167.222 57.7402C166.714 58.2572 166.454 58.975 166.454 59.7817H166.889ZM169.386 57.3604C170.195 57.3604 170.812 57.6229 171.226 58.0446C171.642 58.4672 171.872 59.069 171.872 59.7817H172.307C172.307 58.9743 172.044 58.2568 171.536 57.7402C171.028 57.2227 170.292 56.9261 169.386 56.9261V57.3604ZM178.484 64.0596C180.908 64.0596 182.794 62.136 182.794 59.7165H182.36C182.36 61.9007 180.663 63.6253 178.484 63.6253V64.0596ZM182.794 59.7165C182.794 57.2744 180.896 55.5363 178.484 55.5363V55.9706C180.675 55.9706 182.36 57.5333 182.36 59.7165H182.794ZM178.484 55.5363C176.06 55.5363 174.173 57.2747 174.173 59.7165H174.607C174.607 57.5329 176.281 55.9706 178.484 55.9706V55.5363ZM174.173 59.7165C174.173 62.1357 176.048 64.0596 178.484 64.0596V63.6253C176.293 63.6253 174.607 61.9011 174.607 59.7165H174.173ZM180.97 59.7817C180.97 60.4953 180.741 61.1087 180.325 61.5422C179.91 61.9742 179.291 62.2464 178.473 62.2464V62.6807C179.392 62.6807 180.13 62.372 180.638 61.8431C181.145 61.3157 181.404 60.5881 181.404 59.7817H180.97ZM178.473 62.2464C177.66 62.2464 177.044 61.9744 176.63 61.5425C176.215 61.1089 175.986 60.4954 175.986 59.7817H175.552C175.552 60.5881 175.812 61.3155 176.317 61.8428C176.823 62.3718 177.559 62.6807 178.473 62.6807V62.2464ZM175.986 59.7817C175.986 59.0683 176.215 58.4669 176.63 58.0446C177.044 57.6234 177.663 57.3604 178.484 57.3604V56.9261C177.567 56.9261 176.829 57.2223 176.32 57.7402C175.812 58.2572 175.552 58.975 175.552 59.7817H175.986ZM178.484 57.3604C179.293 57.3604 179.909 57.6229 180.324 58.0446C180.739 58.4672 180.97 59.069 180.97 59.7817H181.404C181.404 58.9743 181.141 58.2568 180.634 57.7402C180.125 57.2227 179.39 56.9261 178.484 56.9261V57.3604Z" fill="#070B0F"/>
<path d="M162.993 105.879V103.772H164.133V102.448H162.993V97.985H161.614V102.448H158.346C157.521 102.448 157.13 102.144 157.13 101.231V97.985H155.751V101.242C155.751 102.99 156.696 103.772 158.346 103.772H161.614V105.879H162.993ZM168.951 105.976C171.253 105.976 173.045 104.152 173.045 101.85C173.045 99.5377 171.253 97.8873 168.951 97.8873C166.639 97.8873 164.858 99.5377 164.858 101.85C164.858 104.152 166.639 105.976 168.951 105.976ZM171.655 101.916C171.655 103.436 170.678 104.597 168.94 104.597C167.214 104.597 166.237 103.436 166.237 101.916C166.237 100.395 167.214 99.2771 168.951 99.2771C170.667 99.2771 171.655 100.395 171.655 101.916ZM178.049 105.976C180.351 105.976 182.142 104.152 182.142 101.85C182.142 99.5377 180.351 97.8873 178.049 97.8873C175.736 97.8873 173.956 99.5377 173.956 101.85C173.956 104.152 175.736 105.976 178.049 105.976ZM180.753 101.916C180.753 103.436 179.775 104.597 178.038 104.597C176.312 104.597 175.335 103.436 175.335 101.916C175.335 100.395 176.312 99.2771 178.049 99.2771C179.764 99.2771 180.753 100.395 180.753 101.916Z" fill="#070B0F"/>
<path d="M162.993 105.879V106.096H163.211V105.879H162.993ZM162.993 103.772V103.555H162.776V103.772H162.993ZM164.133 103.772V103.989H164.351V103.772H164.133ZM164.133 102.448H164.351V102.23H164.133V102.448ZM162.993 102.448H162.776V102.665H162.993V102.448ZM162.993 97.985H163.211V97.7679H162.993V97.985ZM161.614 97.985V97.7679H161.397V97.985H161.614ZM161.614 102.448V102.665H161.832V102.448H161.614ZM157.13 97.985H157.347V97.7679H157.13V97.985ZM155.751 97.985V97.7679H155.534V97.985H155.751ZM161.614 103.772H161.832V103.555H161.614V103.772ZM161.614 105.879H161.397V106.096H161.614V105.879ZM163.211 105.879V103.772H162.776V105.879H163.211ZM162.993 103.989H164.133V103.555H162.993V103.989ZM164.351 103.772V102.448H163.916V103.772H164.351ZM164.133 102.23H162.993V102.665H164.133V102.23ZM163.211 102.448V97.985H162.776V102.448H163.211ZM162.993 97.7679H161.614V98.2022H162.993V97.7679ZM161.397 97.985V102.448H161.832V97.985H161.397ZM161.614 102.23H158.346V102.665H161.614V102.23ZM158.346 102.23C157.952 102.23 157.718 102.156 157.578 102.024C157.441 101.894 157.347 101.663 157.347 101.231H156.913C156.913 101.712 157.015 102.089 157.28 102.339C157.542 102.587 157.915 102.665 158.346 102.665V102.23ZM157.347 101.231V97.985H156.913V101.231H157.347ZM157.13 97.7679H155.751V98.2022H157.13V97.7679ZM155.534 97.985V101.242H155.968V97.985H155.534ZM155.534 101.242C155.534 102.154 155.781 102.853 156.282 103.321C156.779 103.787 157.49 103.989 158.346 103.989V103.555C157.552 103.555 156.966 103.367 156.578 103.004C156.194 102.644 155.968 102.078 155.968 101.242H155.534ZM158.346 103.989H161.614V103.555H158.346V103.989ZM161.397 103.772V105.879H161.832V103.772H161.397ZM161.614 106.096H162.993V105.661H161.614V106.096ZM168.951 106.193C171.375 106.193 173.262 104.27 173.262 101.85H172.828C172.828 104.035 171.131 105.759 168.951 105.759V106.193ZM173.262 101.85C173.262 99.4082 171.363 97.6701 168.951 97.6701V98.1045C171.143 98.1045 172.828 99.6672 172.828 101.85H173.262ZM168.951 97.6701C166.528 97.6701 164.641 99.4086 164.641 101.85H165.075C165.075 99.6668 166.749 98.1045 168.951 98.1045V97.6701ZM164.641 101.85C164.641 104.27 166.516 106.193 168.951 106.193V105.759C166.761 105.759 165.075 104.035 165.075 101.85H164.641ZM171.438 101.916C171.438 102.629 171.209 103.243 170.793 103.676C170.378 104.108 169.759 104.38 168.94 104.38V104.815C169.86 104.815 170.598 104.506 171.106 103.977C171.612 103.45 171.872 102.722 171.872 101.916H171.438ZM168.94 104.38C168.128 104.38 167.512 104.108 167.098 103.676C166.683 103.243 166.454 102.629 166.454 101.916H166.02C166.02 102.722 166.279 103.449 166.784 103.977C167.291 104.506 168.026 104.815 168.94 104.815V104.38ZM166.454 101.916C166.454 101.202 166.683 100.601 167.098 100.178C167.512 99.7572 168.131 99.4942 168.951 99.4942V99.0599C168.035 99.0599 167.297 99.3561 166.788 99.8741C166.28 100.391 166.02 101.109 166.02 101.916H166.454ZM168.951 99.4942C169.76 99.4942 170.377 99.7568 170.792 100.178C171.207 100.601 171.438 101.203 171.438 101.916H171.872C171.872 101.108 171.609 100.391 171.101 99.8741C170.593 99.3566 169.858 99.0599 168.951 99.0599V99.4942ZM178.049 106.193C180.473 106.193 182.359 104.27 182.359 101.85H181.925C181.925 104.035 180.229 105.759 178.049 105.759V106.193ZM182.359 101.85C182.359 99.4082 180.461 97.6701 178.049 97.6701V98.1045C180.241 98.1045 181.925 99.6672 181.925 101.85H182.359ZM178.049 97.6701C175.626 97.6701 173.738 99.4086 173.738 101.85H174.173C174.173 99.6668 175.847 98.1045 178.049 98.1045V97.6701ZM173.738 101.85C173.738 104.27 175.614 106.193 178.049 106.193V105.759C175.859 105.759 174.173 104.035 174.173 101.85H173.738ZM180.535 101.916C180.535 102.629 180.307 103.243 179.89 103.676C179.475 104.108 178.856 104.38 178.038 104.38V104.815C178.957 104.815 179.695 104.506 180.203 103.977C180.71 103.45 180.97 102.722 180.97 101.916H180.535ZM178.038 104.38C177.226 104.38 176.609 104.108 176.196 103.676C175.781 103.243 175.552 102.629 175.552 101.916H175.117C175.117 102.722 175.377 103.449 175.882 103.977C176.389 104.506 177.124 104.815 178.038 104.815V104.38ZM175.552 101.916C175.552 101.202 175.78 100.601 176.195 100.178C176.609 99.7572 177.228 99.4942 178.049 99.4942V99.0599C177.132 99.0599 176.394 99.3561 175.885 99.8741C175.377 100.391 175.117 101.109 175.117 101.916H175.552ZM178.049 99.4942C178.858 99.4942 179.475 99.7568 179.889 100.178C180.304 100.601 180.535 101.203 180.535 101.916H180.97C180.97 101.108 180.707 100.391 180.199 99.8741C179.69 99.3566 178.955 99.0599 178.049 99.0599V99.4942Z" fill="#070B0F"/>
<path d="M161.137 148.012C162.679 148.012 163.677 147.057 163.677 145.624C163.677 144.701 163.156 144.071 162.44 143.843C163.026 143.659 163.525 143.159 163.525 142.16C163.525 140.814 162.516 140.119 160.985 140.119H155.762V141.487H160.713C161.625 141.487 162.136 141.737 162.136 142.464C162.136 143.148 161.766 143.42 160.985 143.42H157.597V144.581H161.082C161.853 144.581 162.277 144.94 162.277 145.591C162.277 146.275 161.669 146.634 160.8 146.634H155.73V148.012H161.137ZM168.76 148.11C171.062 148.11 172.854 146.286 172.854 143.984C172.854 141.672 171.062 140.021 168.76 140.021C166.448 140.021 164.667 141.672 164.667 143.984C164.667 146.286 166.448 148.11 168.76 148.11ZM171.464 144.049C171.464 145.569 170.487 146.731 168.75 146.731C167.023 146.731 166.046 145.569 166.046 144.049C166.046 142.529 167.023 141.411 168.76 141.411C170.476 141.411 171.464 142.529 171.464 144.049ZM177.858 148.11C180.16 148.11 181.951 146.286 181.951 143.984C181.951 141.672 180.16 140.021 177.858 140.021C175.545 140.021 173.765 141.672 173.765 143.984C173.765 146.286 175.545 148.11 177.858 148.11ZM180.562 144.049C180.562 145.569 179.584 146.731 177.847 146.731C176.121 146.731 175.144 145.569 175.144 144.049C175.144 142.529 176.121 141.411 177.858 141.411C179.574 141.411 180.562 142.529 180.562 144.049Z" fill="#070B0F"/>
<path d="M162.44 143.843L162.374 143.636L161.72 143.842L162.374 144.05L162.44 143.843ZM155.762 140.119V139.902H155.545V140.119H155.762ZM155.762 141.487H155.545V141.704H155.762V141.487ZM157.597 143.42V143.203H157.38V143.42H157.597ZM157.597 144.581H157.38V144.799H157.597V144.581ZM155.73 146.634V146.416H155.512V146.634H155.73ZM155.73 148.012H155.512V148.23H155.73V148.012ZM161.137 148.23C161.953 148.23 162.645 147.976 163.134 147.513C163.625 147.05 163.895 146.393 163.895 145.624H163.46C163.46 146.288 163.23 146.825 162.836 147.198C162.441 147.571 161.863 147.795 161.137 147.795V148.23ZM163.895 145.624C163.895 144.607 163.313 143.893 162.506 143.636L162.374 144.05C163 144.249 163.46 144.795 163.46 145.624H163.895ZM162.505 144.05C162.835 143.946 163.148 143.751 163.378 143.435C163.608 143.118 163.743 142.697 163.743 142.16H163.308C163.308 142.623 163.193 142.95 163.027 143.179C162.86 143.409 162.63 143.555 162.374 143.636L162.505 144.05ZM163.743 142.16C163.743 141.427 163.464 140.85 162.962 140.463C162.467 140.082 161.779 139.902 160.985 139.902V140.336C161.721 140.336 162.303 140.504 162.697 140.807C163.082 141.104 163.308 141.547 163.308 142.16H163.743ZM160.985 139.902H155.762V140.336H160.985V139.902ZM155.545 140.119V141.487H155.979V140.119H155.545ZM155.762 141.704H160.713V141.27H155.762V141.704ZM160.713 141.704C161.159 141.704 161.462 141.767 161.65 141.886C161.817 141.992 161.919 142.16 161.919 142.464H162.353C162.353 142.041 162.199 141.72 161.883 141.519C161.588 141.332 161.18 141.27 160.713 141.27V141.704ZM161.919 142.464C161.919 142.768 161.838 142.932 161.717 143.029C161.585 143.136 161.359 143.203 160.985 143.203V143.637C161.392 143.637 161.742 143.568 161.99 143.367C162.249 143.158 162.353 142.845 162.353 142.464H161.919ZM160.985 143.203H157.597V143.637H160.985V143.203ZM157.38 143.42V144.581H157.814V143.42H157.38ZM157.597 144.799H161.082V144.364H157.597V144.799ZM161.082 144.799C161.438 144.799 161.679 144.882 161.828 145.008C161.972 145.129 162.06 145.315 162.06 145.591H162.494C162.494 145.216 162.37 144.897 162.109 144.676C161.854 144.46 161.498 144.364 161.082 144.364V144.799ZM162.06 145.591C162.06 145.858 161.946 146.052 161.743 146.189C161.531 146.331 161.209 146.416 160.8 146.416V146.851C161.26 146.851 161.677 146.757 161.985 146.549C162.304 146.335 162.494 146.008 162.494 145.591H162.06ZM160.8 146.416H155.73V146.851H160.8V146.416ZM155.512 146.634V148.012H155.947V146.634H155.512ZM155.73 148.23H161.137V147.795H155.73V148.23ZM168.76 148.327C171.185 148.327 173.071 146.404 173.071 143.984H172.637C172.637 146.168 170.94 147.893 168.76 147.893V148.327ZM173.071 143.984C173.071 141.542 171.172 139.804 168.76 139.804V140.238C170.952 140.238 172.637 141.801 172.637 143.984H173.071ZM168.76 139.804C166.337 139.804 164.45 141.542 164.45 143.984H164.884C164.884 141.801 166.558 140.238 168.76 140.238V139.804ZM164.45 143.984C164.45 146.403 166.325 148.327 168.76 148.327V147.893C166.57 147.893 164.884 146.169 164.884 143.984H164.45ZM171.247 144.049C171.247 144.763 171.018 145.376 170.602 145.81C170.187 146.242 169.568 146.514 168.75 146.514V146.948C169.669 146.948 170.407 146.64 170.915 146.111C171.421 145.583 171.681 144.856 171.681 144.049H171.247ZM168.75 146.514C167.937 146.514 167.321 146.242 166.907 145.81C166.492 145.377 166.263 144.763 166.263 144.049H165.829C165.829 144.856 166.089 145.583 166.594 146.111C167.1 146.639 167.836 146.948 168.75 146.948V146.514ZM166.263 144.049C166.263 143.336 166.492 142.735 166.907 142.312C167.321 141.891 167.94 141.628 168.76 141.628V141.194C167.844 141.194 167.106 141.49 166.597 142.008C166.089 142.525 165.829 143.243 165.829 144.049H166.263ZM168.76 141.628C169.57 141.628 170.186 141.891 170.601 142.312C171.016 142.735 171.247 143.337 171.247 144.049H171.681C171.681 143.242 171.418 142.525 170.91 142.008C170.402 141.49 169.667 141.194 168.76 141.194V141.628ZM177.858 148.327C180.282 148.327 182.169 146.404 182.169 143.984H181.734C181.734 146.168 180.038 147.893 177.858 147.893V148.327ZM182.169 143.984C182.169 141.542 180.27 139.804 177.858 139.804V140.238C180.05 140.238 181.734 141.801 181.734 143.984H182.169ZM177.858 139.804C175.435 139.804 173.548 141.542 173.548 143.984H173.982C173.982 141.801 175.656 140.238 177.858 140.238V139.804ZM173.548 143.984C173.548 146.403 175.423 148.327 177.858 148.327V147.893C175.668 147.893 173.982 146.169 173.982 143.984H173.548ZM180.345 144.049C180.345 144.763 180.116 145.376 179.699 145.81C179.284 146.242 178.665 146.514 177.847 146.514V146.948C178.766 146.948 179.505 146.64 180.013 146.111C180.519 145.583 180.779 144.856 180.779 144.049H180.345ZM177.847 146.514C177.035 146.514 176.419 146.242 176.005 145.81C175.59 145.377 175.361 144.763 175.361 144.049H174.926C174.926 144.856 175.186 145.583 175.691 146.111C176.198 146.639 176.933 146.948 177.847 146.948V146.514ZM175.361 144.049C175.361 143.336 175.589 142.735 176.004 142.312C176.418 141.891 177.037 141.628 177.858 141.628V141.194C176.941 141.194 176.203 141.49 175.695 142.008C175.187 142.525 174.926 143.243 174.926 144.049H175.361ZM177.858 141.628C178.667 141.628 179.284 141.891 179.698 142.312C180.114 142.735 180.345 143.337 180.345 144.049H180.779C180.779 143.242 180.516 142.525 180.008 142.008C179.5 141.49 178.765 141.194 177.858 141.194V141.628Z" fill="#070B0F"/>
<path d="M163.493 190.146V188.767H157.217V187.736C157.217 187.063 157.608 186.715 158.346 186.715H161.213C162.711 186.715 163.623 185.771 163.623 184.468C163.623 183.197 162.765 182.253 161.202 182.253H155.979V183.632H161.202C161.821 183.632 162.201 184.001 162.201 184.598C162.201 185.195 161.799 185.554 161.202 185.554H158.346C156.761 185.554 155.914 186.303 155.914 187.834V190.146H163.493ZM168.739 190.244C171.041 190.244 172.833 188.42 172.833 186.118C172.833 183.805 171.041 182.155 168.739 182.155C166.427 182.155 164.646 183.805 164.646 186.118C164.646 188.42 166.427 190.244 168.739 190.244ZM171.443 186.183C171.443 187.703 170.466 188.865 168.728 188.865C167.002 188.865 166.025 187.703 166.025 186.183C166.025 184.663 167.002 183.545 168.739 183.545C170.455 183.545 171.443 184.663 171.443 186.183ZM177.837 190.244C180.139 190.244 181.93 188.42 181.93 186.118C181.93 183.805 180.139 182.155 177.837 182.155C175.524 182.155 173.744 183.805 173.744 186.118C173.744 188.42 175.524 190.244 177.837 190.244ZM180.54 186.183C180.54 187.703 179.563 188.865 177.826 188.865C176.1 188.865 175.122 187.703 175.122 186.183C175.122 184.663 176.1 183.545 177.837 183.545C179.552 183.545 180.54 184.663 180.54 186.183Z" fill="#070B0F"/>
<path d="M163.493 190.146V190.364H163.71V190.146H163.493ZM163.493 188.767H163.71V188.55H163.493V188.767ZM157.217 188.767H157V188.985H157.217V188.767ZM155.979 182.253V182.036H155.762V182.253H155.979ZM155.979 183.632H155.762V183.849H155.979V183.632ZM155.914 190.146H155.697V190.364H155.914V190.146ZM163.71 190.146V188.767H163.276V190.146H163.71ZM163.493 188.55H157.217V188.985H163.493V188.55ZM157.434 188.767V187.736H157V188.767H157.434ZM157.434 187.736C157.434 187.442 157.518 187.253 157.65 187.135C157.786 187.012 158.008 186.932 158.346 186.932V186.498C157.947 186.498 157.604 186.592 157.36 186.812C157.111 187.035 157 187.357 157 187.736H157.434ZM158.346 186.932H161.213V186.498H158.346V186.932ZM161.213 186.932C162.008 186.932 162.668 186.681 163.13 186.237C163.593 185.792 163.84 185.171 163.84 184.468H163.406C163.406 185.067 163.197 185.57 162.829 185.924C162.461 186.277 161.916 186.498 161.213 186.498V186.932ZM163.84 184.468C163.84 183.783 163.608 183.169 163.15 182.728C162.691 182.286 162.028 182.036 161.202 182.036V182.47C161.94 182.47 162.487 182.692 162.848 183.04C163.209 183.388 163.406 183.882 163.406 184.468H163.84ZM161.202 182.036H155.979V182.47H161.202V182.036ZM155.762 182.253V183.632H156.196V182.253H155.762ZM155.979 183.849H161.202V183.415H155.979V183.849ZM161.202 183.849C161.468 183.849 161.659 183.928 161.782 184.047C161.905 184.165 161.984 184.347 161.984 184.598H162.418C162.418 184.252 162.307 183.95 162.085 183.735C161.863 183.52 161.554 183.415 161.202 183.415V183.849ZM161.984 184.598C161.984 184.846 161.902 185.024 161.777 185.141C161.65 185.26 161.458 185.336 161.202 185.336V185.771C161.543 185.771 161.85 185.668 162.074 185.458C162.299 185.247 162.418 184.947 162.418 184.598H161.984ZM161.202 185.336H158.346V185.771H161.202V185.336ZM158.346 185.336C157.523 185.336 156.853 185.531 156.388 185.96C155.921 186.392 155.697 187.029 155.697 187.834H156.131C156.131 187.108 156.331 186.604 156.683 186.279C157.038 185.951 157.584 185.771 158.346 185.771V185.336ZM155.697 187.834V190.146H156.131V187.834H155.697ZM155.914 190.364H163.493V189.929H155.914V190.364ZM168.739 190.461C171.163 190.461 173.05 188.538 173.05 186.118H172.615C172.615 188.302 170.919 190.027 168.739 190.027V190.461ZM173.05 186.118C173.05 183.676 171.151 181.938 168.739 181.938V182.372C170.931 182.372 172.615 183.935 172.615 186.118H173.05ZM168.739 181.938C166.316 181.938 164.429 183.676 164.429 186.118H164.863C164.863 183.935 166.537 182.372 168.739 182.372V181.938ZM164.429 186.118C164.429 188.537 166.304 190.461 168.739 190.461V190.027C166.549 190.027 164.863 188.303 164.863 186.118H164.429ZM171.226 186.183C171.226 186.897 170.997 187.51 170.58 187.944C170.166 188.376 169.547 188.648 168.728 188.648V189.082C169.648 189.082 170.386 188.774 170.894 188.245C171.4 187.717 171.66 186.99 171.66 186.183H171.226ZM168.728 188.648C167.916 188.648 167.3 188.376 166.886 187.944C166.471 187.51 166.242 186.897 166.242 186.183H165.808C165.808 186.99 166.067 187.717 166.572 188.244C167.079 188.773 167.814 189.082 168.728 189.082V188.648ZM166.242 186.183C166.242 185.47 166.471 184.868 166.885 184.446C167.299 184.025 167.919 183.762 168.739 183.762V183.328C167.823 183.328 167.085 183.624 166.576 184.142C166.068 184.659 165.808 185.377 165.808 186.183H166.242ZM168.739 183.762C169.548 183.762 170.165 184.025 170.58 184.446C170.995 184.869 171.226 185.471 171.226 186.183H171.66C171.66 185.376 171.397 184.658 170.889 184.142C170.381 183.624 169.646 183.328 168.739 183.328V183.762ZM177.837 190.461C180.261 190.461 182.147 188.538 182.147 186.118H181.713C181.713 188.302 180.017 190.027 177.837 190.027V190.461ZM182.147 186.118C182.147 183.676 180.249 181.938 177.837 181.938V182.372C180.029 182.372 181.713 183.935 181.713 186.118H182.147ZM177.837 181.938C175.414 181.938 173.526 183.676 173.526 186.118H173.961C173.961 183.935 175.635 182.372 177.837 182.372V181.938ZM173.526 186.118C173.526 188.537 175.402 190.461 177.837 190.461V190.027C175.647 190.027 173.961 188.303 173.961 186.118H173.526ZM180.323 186.183C180.323 186.897 180.094 187.51 179.678 187.944C179.263 188.376 178.644 188.648 177.826 188.648V189.082C178.745 189.082 179.483 188.774 179.991 188.245C180.498 187.717 180.758 186.99 180.758 186.183H180.323ZM177.826 188.648C177.014 188.648 176.397 188.376 175.984 187.944C175.568 187.51 175.34 186.897 175.34 186.183H174.905C174.905 186.99 175.165 187.717 175.67 188.244C176.177 188.773 176.912 189.082 177.826 189.082V188.648ZM175.34 186.183C175.34 185.47 175.568 184.868 175.983 184.446C176.397 184.025 177.016 183.762 177.837 183.762V183.328C176.92 183.328 176.182 183.624 175.673 184.142C175.165 184.659 174.905 185.377 174.905 186.183H175.34ZM177.837 183.762C178.646 183.762 179.263 184.025 179.677 184.446C180.092 184.869 180.323 185.471 180.323 186.183H180.758C180.758 185.376 180.495 184.658 179.987 184.142C179.478 183.624 178.743 183.328 177.837 183.328V183.762Z" fill="#070B0F"/>
<path d="M158.726 232.28V226.971C158.726 225.342 157.836 224.387 156.251 224.387H155.491V225.766H156.251C156.967 225.766 157.358 226.189 157.358 226.971V232.28H158.726ZM163.957 232.378C166.259 232.378 168.051 230.554 168.051 228.252C168.051 225.939 166.259 224.289 163.957 224.289C161.645 224.289 159.864 225.939 159.864 228.252C159.864 230.554 161.645 232.378 163.957 232.378ZM166.661 228.317C166.661 229.837 165.684 230.999 163.946 230.999C162.22 230.999 161.243 229.837 161.243 228.317C161.243 226.797 162.22 225.679 163.957 225.679C165.673 225.679 166.661 226.797 166.661 228.317ZM173.055 232.378C175.357 232.378 177.148 230.554 177.148 228.252C177.148 225.939 175.357 224.289 173.055 224.289C170.742 224.289 168.961 225.939 168.961 228.252C168.961 230.554 170.742 232.378 173.055 232.378ZM175.758 228.317C175.758 229.837 174.781 230.999 173.044 230.999C171.318 230.999 170.34 229.837 170.34 228.317C170.34 226.797 171.318 225.679 173.055 225.679C174.77 225.679 175.758 226.797 175.758 228.317Z" fill="#070B0F"/>
<path d="M158.726 232.28V232.497H158.943V232.28H158.726ZM155.491 224.387V224.17H155.274V224.387H155.491ZM155.491 225.766H155.274V225.983H155.491V225.766ZM157.358 232.28H157.141V232.497H157.358V232.28ZM158.943 232.28V226.971H158.509V232.28H158.943ZM158.943 226.971C158.943 226.118 158.71 225.412 158.24 224.918C157.769 224.423 157.088 224.17 156.251 224.17V224.604C156.999 224.604 157.555 224.828 157.926 225.218C158.297 225.609 158.509 226.195 158.509 226.971H158.943ZM156.251 224.17H155.491V224.604H156.251V224.17ZM155.274 224.387V225.766H155.708V224.387H155.274ZM155.491 225.983H156.251V225.548H155.491V225.983ZM156.251 225.983C156.566 225.983 156.778 226.075 156.913 226.222C157.052 226.372 157.141 226.613 157.141 226.971H157.575C157.575 226.546 157.469 226.185 157.233 225.928C156.994 225.668 156.652 225.548 156.251 225.548V225.983ZM157.141 226.971V232.28H157.575V226.971H157.141ZM157.358 232.497H158.726V232.063H157.358V232.497ZM163.957 232.595C166.381 232.595 168.268 230.672 168.268 228.252H167.833C167.833 230.436 166.137 232.161 163.957 232.161V232.595ZM168.268 228.252C168.268 225.81 166.369 224.072 163.957 224.072V224.506C166.149 224.506 167.833 226.069 167.833 228.252H168.268ZM163.957 224.072C161.534 224.072 159.647 225.81 159.647 228.252H160.081C160.081 226.068 161.755 224.506 163.957 224.506V224.072ZM159.647 228.252C159.647 230.671 161.522 232.595 163.957 232.595V232.161C161.767 232.161 160.081 230.437 160.081 228.252H159.647ZM166.444 228.317C166.444 229.031 166.215 229.644 165.798 230.078C165.384 230.51 164.765 230.782 163.946 230.782V231.216C164.865 231.216 165.604 230.908 166.112 230.379C166.618 229.851 166.878 229.124 166.878 228.317H166.444ZM163.946 230.782C163.134 230.782 162.518 230.51 162.104 230.078C161.689 229.644 161.46 229.031 161.46 228.317H161.026C161.026 229.124 161.285 229.851 161.79 230.378C162.297 230.907 163.032 231.216 163.946 231.216V230.782ZM161.46 228.317C161.46 227.604 161.689 227.002 162.103 226.58C162.517 226.159 163.137 225.896 163.957 225.896V225.462C163.041 225.462 162.303 225.758 161.794 226.276C161.286 226.793 161.026 227.51 161.026 228.317H161.46ZM163.957 225.896C164.766 225.896 165.383 226.158 165.797 226.58C166.213 227.003 166.444 227.604 166.444 228.317H166.878C166.878 227.51 166.615 226.792 166.107 226.276C165.599 225.758 164.864 225.462 163.957 225.462V225.896ZM173.055 232.595C175.479 232.595 177.365 230.672 177.365 228.252H176.931C176.931 230.436 175.234 232.161 173.055 232.161V232.595ZM177.365 228.252C177.365 225.81 175.467 224.072 173.055 224.072V224.506C175.246 224.506 176.931 226.069 176.931 228.252H177.365ZM173.055 224.072C170.632 224.072 168.744 225.81 168.744 228.252H169.179C169.179 226.068 170.853 224.506 173.055 224.506V224.072ZM168.744 228.252C168.744 230.671 170.62 232.595 173.055 232.595V232.161C170.865 232.161 169.179 230.437 169.179 228.252H168.744ZM175.541 228.317C175.541 229.031 175.312 229.644 174.896 230.078C174.481 230.51 173.862 230.782 173.044 230.782V231.216C173.963 231.216 174.701 230.908 175.209 230.379C175.716 229.851 175.976 229.124 175.976 228.317H175.541ZM173.044 230.782C172.232 230.782 171.615 230.51 171.202 230.078C170.786 229.644 170.558 229.031 170.558 228.317H170.123C170.123 229.124 170.383 229.851 170.888 230.378C171.394 230.907 172.13 231.216 173.044 231.216V230.782ZM170.558 228.317C170.558 227.604 170.786 227.002 171.201 226.58C171.615 226.159 172.234 225.896 173.055 225.896V225.462C172.138 225.462 171.4 225.758 170.891 226.276C170.383 226.793 170.123 227.51 170.123 228.317H170.558ZM173.055 225.896C173.864 225.896 174.481 226.158 174.895 226.58C175.31 227.003 175.541 227.604 175.541 228.317H175.976C175.976 227.51 175.712 226.792 175.205 226.276C174.696 225.758 173.961 225.462 173.055 225.462V225.896Z" fill="#070B0F"/>
<path d="M159.78 274.512C162.081 274.512 163.873 272.688 163.873 270.386C163.873 268.073 162.081 266.423 159.78 266.423C157.467 266.423 155.686 268.073 155.686 270.386C155.686 272.688 157.467 274.512 159.78 274.512ZM162.483 270.451C162.483 271.971 161.506 273.133 159.769 273.133C158.042 273.133 157.065 271.971 157.065 270.451C157.065 268.931 158.042 267.813 159.78 267.813C161.495 267.813 162.483 268.931 162.483 270.451Z" fill="#070B0F"/>
<path d="M159.78 274.729C162.204 274.729 164.09 272.805 164.09 270.386H163.656C163.656 272.57 161.959 274.295 159.78 274.295V274.729ZM164.09 270.386C164.09 267.944 162.192 266.206 159.78 266.206V266.64C161.971 266.64 163.656 268.203 163.656 270.386H164.09ZM159.78 266.206C157.356 266.206 155.469 267.944 155.469 270.386H155.903C155.903 268.202 157.577 266.64 159.78 266.64V266.206ZM155.469 270.386C155.469 272.805 157.344 274.729 159.78 274.729V274.295C157.589 274.295 155.903 272.57 155.903 270.386H155.469ZM162.266 270.451C162.266 271.165 162.037 271.778 161.621 272.212C161.206 272.644 160.587 272.916 159.769 272.916V273.35C160.688 273.35 161.426 273.041 161.934 272.512C162.441 271.985 162.7 271.257 162.7 270.451H162.266ZM159.769 272.916C158.956 272.916 158.34 272.644 157.926 272.212C157.511 271.778 157.282 271.165 157.282 270.451H156.848C156.848 271.257 157.108 271.985 157.613 272.512C158.119 273.041 158.855 273.35 159.769 273.35V272.916ZM157.282 270.451C157.282 269.738 157.511 269.136 157.926 268.714C158.34 268.293 158.959 268.03 159.78 268.03V267.595C158.863 267.595 158.125 267.892 157.616 268.41C157.108 268.927 156.848 269.644 156.848 270.451H157.282ZM159.78 268.03C160.589 268.03 161.205 268.292 161.62 268.714C162.035 269.137 162.266 269.738 162.266 270.451H162.7C162.7 269.644 162.437 268.926 161.93 268.41C161.421 267.892 160.686 267.595 159.78 267.595V268.03Z" fill="#070B0F"/>
<rect x="217.975" y="189.552" width="30.4017" height="86.8619" rx="6.51464" fill="#0A110D"/>
<rect x="254.891" y="213.439" width="30.4017" height="62.9749" rx="6.51464" fill="#0A110D"/>
<rect x="291.807" y="156.979" width="30.4017" height="119.435" rx="6.51464" fill="#0A110D"/>
<rect x="328.724" y="204.753" width="30.4017" height="71.6611" rx="6.51464" fill="#0A110D"/>
<rect x="365.64" y="230.812" width="30.4017" height="45.6025" rx="6.51464" fill="#0A110D"/>
<rect x="402.556" y="154.807" width="30.4017" height="121.607" rx="6.51464" fill="#0A110D"/>
<rect x="439.473" y="178.694" width="30.4017" height="97.7197" rx="6.51464" fill="#0A110D"/>
<rect x="476.389" y="235.155" width="30.4017" height="41.2594" rx="6.51464" fill="#0A110D"/>
<rect x="513.305" y="211.268" width="30.4017" height="65.1464" rx="6.51464" fill="#0A110D"/>
<rect x="550.222" y="226.468" width="30.4017" height="49.9456" rx="6.51464" fill="#0A110D"/>
<rect x="587.138" y="152.636" width="30.4017" height="123.778" rx="6.51464" fill="#0A110D"/>
<rect x="128.086" y="19.0858" width="516.598" height="290.987" rx="9.77197" stroke="url(#paint0_linear_303_90)" stroke-width="2.17155" shape-rendering="crispEdges"/>
</g>
<defs>
<filter id="filter0_d_303_90" x="0" y="0" width="698.77" height="473.159" filterUnits="userSpaceOnUse" color-interpolation-filters="sRGB">
<feFlood flood-opacity="0" result="BackgroundImageFix"/>
<feColorMatrix in="SourceAlpha" type="matrix" values="0 0 0 0 0 0 0 0 0 0 0 0 0 0 0 0 0 0 127 0" result="hardAlpha"/>
<feOffset dx="-37" dy="72"/>
<feGaussianBlur stdDeviation="45"/>
<feComposite in2="hardAlpha" operator="out"/>
<feColorMatrix type="matrix" values="0 0 0 0 0 0 0 0 0 0 0 0 0 0 0 0 0 0 0.2 0"/>
<feBlend mode="normal" in2="BackgroundImageFix" result="effect1_dropShadow_303_90"/>
<feBlend mode="normal" in="SourceGraphic" in2="effect1_dropShadow_303_90" result="shape"/>
</filter>
<linearGradient id="paint0_linear_303_90" x1="340.31" y1="366.273" x2="337.892" y2="17.9813" gradientUnits="userSpaceOnUse">
<stop stop-color="#EFB91C"/>
<stop offset="1" stop-color="#213136" stop-opacity="0"/>
</linearGradient>
</defs>
</svg>
