<svg width="459" height="401" viewBox="0 0 459 401" fill="none" xmlns="http://www.w3.org/2000/svg">
<g filter="url(#filter0_d_303_126)">
<rect x="1.06" y="-1.06" width="320.12" height="262.88" rx="9.54" transform="matrix(1 0 0 -1 36 298.88)" fill="#0B1A20" stroke="url(#paint0_linear_303_126)" stroke-width="2.12"/>
<path fill-rule="evenodd" clip-rule="evenodd" d="M162.952 100.592C160.068 101.831 156.933 104.966 153.386 111.243C146.461 123.494 135.944 140.521 117.942 153.65C99.8817 166.822 74.6418 175.963 38.12 172.74V168.5C73.6782 171.638 98.2583 162.758 115.443 150.225C132.686 137.649 142.839 121.286 149.694 109.157C153.38 102.637 157.094 98.4933 161.279 96.6961C165.615 94.8343 169.957 95.6861 174.322 97.9328C178.628 100.149 183.272 103.88 188.436 108.284C189.781 109.43 191.166 110.626 192.598 111.864C196.734 115.437 201.265 119.352 206.371 123.395C233.665 145.012 277.321 169.983 356.12 157.9V162.14C275.919 174.437 231.751 148.904 203.738 126.719C198.555 122.614 193.923 118.612 189.772 115.026C188.355 113.801 186.994 112.625 185.686 111.51C180.484 107.076 176.19 103.663 172.382 101.703C168.634 99.7737 165.686 99.4181 162.952 100.592Z" fill="#EFB91C"/>
<path fill-rule="evenodd" clip-rule="evenodd" d="M38.119 246.94C38.119 246.94 38.1195 200.3 38.119 172.74V168.5C73.6771 171.638 98.2573 162.758 115.442 150.225C132.685 137.649 142.838 121.286 149.693 109.157C153.379 102.637 157.093 98.4933 161.278 96.6961C165.614 94.8343 169.956 95.6861 174.321 97.9328C178.627 100.149 183.271 103.88 188.435 108.284C189.78 109.43 191.165 110.626 192.597 111.864C196.733 115.437 201.264 119.352 206.37 123.395C233.664 145.012 277.32 169.983 356.119 157.9V251.18C275.918 263.477 200.393 264.885 172.381 242.7C167.198 238.595 130.25 246.286 126.099 242.7C124.681 241.475 97.727 242.755 96.419 241.64C91.2176 237.205 65.2467 243.6 61.439 241.64C43.5 232.407 54.3497 235.103 38.119 246.94Z" fill="url(#paint1_linear_303_126)"/>
<path fill-rule="evenodd" clip-rule="evenodd" d="M197.13 188.362C130.643 150.49 63.1211 151.632 38.12 156.84V152.6C63.9989 147.209 131.732 146.23 199.229 184.678C265.334 222.333 331.469 198.964 356.12 183.34L356.195 188.311C330.672 204.487 265.009 227.027 197.13 188.362Z" fill="white"/>
<circle cx="218.32" cy="135.64" r="8.48" fill="#5282DF"/>
<path d="M199.24 90.272C199.24 87.2278 201.613 84.76 204.54 84.76H236.34C239.267 84.76 241.64 87.2278 241.64 90.272V101.296C241.64 104.34 239.267 106.808 236.34 106.808H204.54C201.613 106.808 199.24 104.34 199.24 101.296V90.272Z" fill="#5282DF"/>
<path d="M219.557 112.32L213.373 104.971H225.74L219.557 112.32Z" fill="#5282DF"/>
<path d="M207.881 96.347V95.6262H205.846V96.347H207.881ZM212.722 99.12C213.927 99.12 214.707 98.3738 214.707 97.2544C214.707 96.5336 214.3 96.0418 213.74 95.8637C214.198 95.7195 214.588 95.3294 214.588 94.5493C214.588 93.4978 213.799 92.955 212.604 92.955H208.525V94.0235H212.392C213.104 94.0235 213.503 94.2186 213.503 94.7867C213.503 95.321 213.214 95.533 212.604 95.533H209.958V96.4403H212.68C213.282 96.4403 213.613 96.7202 213.613 97.229C213.613 97.7632 213.138 98.043 212.459 98.043H208.499V99.12H212.722ZM218.677 99.1963C220.474 99.1963 221.874 97.7717 221.874 95.9739C221.874 94.1677 220.474 92.8787 218.677 92.8787C216.87 92.8787 215.48 94.1677 215.48 95.9739C215.48 97.7717 216.87 99.1963 218.677 99.1963ZM220.788 96.0248C220.788 97.212 220.025 98.1194 218.668 98.1194C217.32 98.1194 216.557 97.212 216.557 96.0248C216.557 94.8376 217.32 93.9642 218.677 93.9642C220.016 93.9642 220.788 94.8376 220.788 96.0248ZM227.385 99.12C228.665 99.12 229.293 98.3483 229.293 97.3138C229.293 96.1181 228.623 95.533 227.385 95.533H223.874V94.032H228.996V92.955H222.763V96.4403H227.385C227.953 96.4403 228.275 96.7117 228.275 97.2374C228.275 97.7208 227.961 98.043 227.385 98.043H222.763V99.12H227.385ZM232.462 99.12V94.9733C232.462 93.7013 231.767 92.955 230.529 92.955H229.935V94.032H230.529C231.088 94.032 231.394 94.3627 231.394 94.9733V99.12H232.462Z" fill="black"/>
<path d="M59.6592 275.38C61.8046 275.38 62.7629 274.481 62.7629 272.573V269.215H61.6859V272.573C61.6859 273.769 61.1008 274.303 59.6592 274.303H57.4035V275.38H59.6592ZM70.9417 275.38L67.3886 269.478C67.2614 269.266 67.1087 269.13 66.8713 269.13C66.6339 269.13 66.4727 269.266 66.3455 269.478L62.8009 275.38H64.0305L66.8289 270.648L68.2027 272.955H66.3116L65.8028 273.828H68.7199L69.6443 275.38H70.9417ZM76.9393 275.227C77.0919 275.38 77.253 275.456 77.4311 275.456C77.7449 275.456 77.9653 275.219 77.9653 274.812V269.164H76.9393V273.676L72.589 269.359C72.4279 269.198 72.2922 269.139 72.1311 269.139C71.7919 269.139 71.5799 269.385 71.5799 269.783V275.38H72.606V270.869L76.9393 275.227Z" fill="white"/>
<path d="M109.371 275.38V270.292H113.534V269.215H108.302V275.38H109.371ZM113.28 272.828V271.886H110.159V272.828H113.28ZM119.793 275.38V274.303H115.35V270.292H119.785V269.215H114.281V275.38H119.793ZM119.556 272.7V271.793H116.138V272.7H119.556ZM125.346 275.38C126.55 275.38 127.33 274.642 127.33 273.514C127.33 272.794 126.923 272.302 126.364 272.124C126.821 271.98 127.22 271.589 127.22 270.809C127.22 269.758 126.423 269.215 125.219 269.215H120.707V275.38H125.346ZM125.304 272.7C125.906 272.7 126.236 272.989 126.236 273.497C126.236 274.1 125.677 274.312 124.905 274.312H121.784V270.292H124.812C125.609 270.292 126.126 270.394 126.126 271.047C126.126 271.581 125.838 271.793 125.227 271.793H122.564V272.7H125.304Z" fill="white"/>
<path d="M165.613 275.38L164.036 269.58C163.951 269.283 163.781 269.139 163.519 269.139C163.29 269.139 163.103 269.266 163.001 269.503L161.102 273.862L159.202 269.503C159.1 269.266 158.888 269.139 158.66 269.139C158.371 269.139 158.202 269.283 158.125 269.58L156.54 275.38H157.6L158.778 271.047L160.517 275.058C160.627 275.321 160.813 275.465 161.068 275.465C161.331 275.465 161.5 275.321 161.619 275.058L163.366 271.047L164.545 275.38H165.613ZM174.053 275.38L170.5 269.478C170.372 269.266 170.22 269.13 169.982 269.13C169.745 269.13 169.584 269.266 169.457 269.478L165.912 275.38H167.142L169.94 270.648L171.314 272.955H169.423L168.914 273.828H171.831L172.755 275.38H174.053ZM181.967 275.38L180.11 273.506C180.907 273.201 181.382 272.48 181.382 271.462C181.382 270.088 180.551 269.215 179.143 269.215H174.716V275.38H175.785V270.292H179.143C179.881 270.292 180.322 270.682 180.322 271.479C180.322 272.276 179.915 272.717 179.143 272.717H176.573V273.667H178.88L180.44 275.38H181.967Z" fill="white"/>
<path d="M219.164 275.38L215.61 269.478C215.483 269.266 215.331 269.13 215.093 269.13C214.856 269.13 214.695 269.266 214.567 269.478L211.023 275.38H212.252L215.051 270.648L216.424 272.955H214.533L214.025 273.828H216.942L217.866 275.38H219.164ZM224.16 273.667C225.585 273.667 226.416 272.751 226.416 271.42C226.416 270.072 225.585 269.215 224.16 269.215H219.827V275.38H220.896V270.292H224.16C224.915 270.292 225.365 270.741 225.365 271.454C225.365 272.149 224.915 272.624 224.16 272.624H221.684V273.667H224.16ZM234.431 275.38L232.574 273.506C233.371 273.201 233.846 272.48 233.846 271.462C233.846 270.088 233.015 269.215 231.607 269.215H227.181V275.38H228.249V270.292H231.607C232.345 270.292 232.786 270.682 232.786 271.479C232.786 272.276 232.379 272.717 231.607 272.717H229.038V273.667H231.345L232.905 275.38H234.431Z" fill="white"/>
<path d="M272.749 275.38L271.172 269.58C271.087 269.283 270.917 269.139 270.655 269.139C270.426 269.139 270.239 269.266 270.137 269.503L268.238 273.862L266.338 269.503C266.236 269.266 266.024 269.139 265.796 269.139C265.507 269.139 265.338 269.283 265.261 269.58L263.676 275.38H264.736L265.914 271.047L267.653 275.058C267.763 275.321 267.949 275.465 268.204 275.465C268.467 275.465 268.636 275.321 268.755 275.058L270.502 271.047L271.681 275.38H272.749ZM281.189 275.38L277.636 269.478C277.508 269.266 277.356 269.13 277.118 269.13C276.881 269.13 276.72 269.266 276.593 269.478L273.048 275.38H274.277L277.076 270.648L278.45 272.955H276.559L276.05 273.828H278.967L279.891 275.38H281.189ZM284.006 275.38V273.04L287.288 269.215H285.914L283.506 272.056L281.106 269.215H279.656L282.929 273.04V275.38H284.006Z" fill="white"/>
<path d="M318.499 275.38C320.645 275.38 321.603 274.481 321.603 272.573V269.215H320.526V272.573C320.526 273.769 319.941 274.303 318.499 274.303H316.244V275.38H318.499ZM328.09 272.658C328.09 273.896 327.539 274.405 325.843 274.405C324.147 274.405 323.596 273.896 323.596 272.658V269.215H322.485V272.658C322.485 274.566 323.435 275.465 325.809 275.465C328.2 275.465 329.142 274.566 329.142 272.658V269.215H328.09V272.658ZM335.448 275.227C335.601 275.38 335.762 275.456 335.94 275.456C336.254 275.456 336.474 275.219 336.474 274.812V269.164H335.448V273.676L331.098 269.359C330.937 269.198 330.801 269.139 330.64 269.139C330.301 269.139 330.089 269.385 330.089 269.783V275.38H331.115V270.869L335.448 275.227Z" fill="white"/>
</g>
<defs>
<filter id="filter0_d_303_126" x="0" y="0" width="458.24" height="401" filterUnits="userSpaceOnUse" color-interpolation-filters="sRGB">
<feFlood flood-opacity="0" result="BackgroundImageFix"/>
<feColorMatrix in="SourceAlpha" type="matrix" values="0 0 0 0 0 0 0 0 0 0 0 0 0 0 0 0 0 0 127 0" result="hardAlpha"/>
<feOffset dx="32" dy="32"/>
<feGaussianBlur stdDeviation="34"/>
<feComposite in2="hardAlpha" operator="out"/>
<feColorMatrix type="matrix" values="0 0 0 0 0 0 0 0 0 0 0 0 0 0 0 0 0 0 0.45 0"/>
<feBlend mode="normal" in2="BackgroundImageFix" result="effect1_dropShadow_303_126"/>
<feBlend mode="normal" in="SourceGraphic" in2="effect1_dropShadow_303_126" result="shape"/>
</filter>
<linearGradient id="paint0_linear_303_126" x1="132.5" y1="314.82" x2="129.32" y2="8.58845e-06" gradientUnits="userSpaceOnUse">
<stop stop-color="#213136"/>
<stop offset="1" stop-color="#213136" stop-opacity="0"/>
</linearGradient>
<linearGradient id="paint1_linear_303_126" x1="197.119" y1="95.6768" x2="197.119" y2="219.38" gradientUnits="userSpaceOnUse">
<stop stop-color="#EFB91C" stop-opacity="0.31"/>
<stop offset="1" stop-color="#EFB91C" stop-opacity="0"/>
</linearGradient>
</defs>
</svg>
