<svg width="64" height="66" viewBox="0 0 64 66" fill="none" xmlns="http://www.w3.org/2000/svg">
<path d="M33.3333 33.1551C34.6222 31.7329 35.6116 30.1106 36.3013 28.2884C36.9893 26.4662 37.3333 24.5773 37.3333 22.6217C37.3333 20.6662 36.9893 18.7773 36.3013 16.9551C35.6116 15.1329 34.6222 13.5106 33.3333 12.0884C36 12.444 38.2222 13.6217 40 15.6217C41.7778 17.6217 42.6667 19.9551 42.6667 22.6217C42.6667 25.2884 41.7778 27.6217 40 29.6217C38.2222 31.6217 36 32.7995 33.3333 33.1551ZM46.7333 54.6217C47.1333 54.3106 47.4444 53.9213 47.6667 53.4537C47.8889 52.988 48 52.4662 48 51.8884V46.6217C48 45.0217 47.6444 43.5 46.9333 42.0564C46.2222 40.6111 45.2889 39.3329 44.1333 38.2217C46.4 39.0217 48.5004 40.0546 50.4347 41.3204C52.3671 42.588 53.3333 44.3551 53.3333 46.6217V51.9551C53.3333 52.7106 53.0773 53.3435 52.5653 53.8537C52.0551 54.3657 51.4222 54.6217 50.6667 54.6217H46.7333ZM56 35.9551C55.2444 35.9551 54.6116 35.6991 54.1013 35.1871C53.5893 34.6769 53.3333 34.044 53.3333 33.2884V30.6217H50.6667C49.9111 30.6217 49.2782 30.3657 48.768 29.8537C48.256 29.3435 48 28.7106 48 27.9551C48 27.1995 48.256 26.5657 48.768 26.0537C49.2782 25.5435 49.9111 25.2884 50.6667 25.2884H53.3333V22.6217C53.3333 21.8662 53.5893 21.2324 54.1013 20.7204C54.6116 20.2102 55.2444 19.9551 56 19.9551C56.7556 19.9551 57.3884 20.2102 57.8987 20.7204C58.4107 21.2324 58.6667 21.8662 58.6667 22.6217V25.2884H61.3333C62.0889 25.2884 62.7218 25.5435 63.232 26.0537C63.744 26.5657 64 27.1995 64 27.9551C64 28.7106 63.744 29.3435 63.232 29.8537C62.7218 30.3657 62.0889 30.6217 61.3333 30.6217H58.6667V33.2884C58.6667 34.044 58.4107 34.6769 57.8987 35.1871C57.3884 35.6991 56.7556 35.9551 56 35.9551ZM21.3333 33.2884C18.4 33.2884 15.8889 32.244 13.8 30.1551C11.7111 28.0662 10.6667 25.5551 10.6667 22.6217C10.6667 19.6884 11.7111 17.1773 13.8 15.0884C15.8889 12.9995 18.4 11.9551 21.3333 11.9551C24.2667 11.9551 26.7778 12.9995 28.8667 15.0884C30.9556 17.1773 32 19.6884 32 22.6217C32 25.5551 30.9556 28.0662 28.8667 30.1551C26.7778 32.244 24.2667 33.2884 21.3333 33.2884ZM2.66667 54.6217C1.91111 54.6217 1.27822 54.3657 0.768 53.8537C0.256 53.3435 0 52.7106 0 51.9551V47.1551C0 45.644 0.389333 44.2546 1.168 42.9871C1.94489 41.7213 2.97778 40.7551 4.26667 40.0884C7.02222 38.7106 9.82222 37.6769 12.6667 36.9871C15.5111 36.2991 18.4 35.9551 21.3333 35.9551C24.2667 35.9551 27.1556 36.2991 30 36.9871C32.8444 37.6769 35.6444 38.7106 38.4 40.0884C39.6889 40.7551 40.7218 41.7213 41.4987 42.9871C42.2773 44.2546 42.6667 45.644 42.6667 47.1551V51.9551C42.6667 52.7106 42.4116 53.3435 41.9013 53.8537C41.3893 54.3657 40.7556 54.6217 40 54.6217H2.66667Z" fill="#EFB91C"/>
</svg>
