<svg width="25" height="25" viewBox="0 0 25 24" fill="none" xmlns="http://www.w3.org/2000/svg">
<path d="M12.5 2.16215C15.7041 2.16215 16.0837 2.17439 17.349 2.23213C18.519 2.28548 19.1544 2.48096 19.5773 2.6453C20.1374 2.86299 20.5371 3.12302 20.957 3.54292C21.377 3.96286 21.637 4.3626 21.8547 4.92273C22.019 5.34557 22.2145 5.98096 22.2679 7.15095C22.3256 8.41629 22.3378 8.79584 22.3378 11.9999C22.3378 15.2041 22.3256 15.5836 22.2679 16.849C22.2145 18.019 22.019 18.6543 21.8547 19.0772C21.637 19.6373 21.377 20.0371 20.9571 20.457C20.5371 20.8769 20.1374 21.1369 19.5773 21.3546C19.1544 21.519 18.519 21.7144 17.349 21.7678C16.0839 21.8255 15.7044 21.8378 12.5 21.8378C9.29563 21.8378 8.91618 21.8255 7.65097 21.7678C6.48098 21.7144 5.84559 21.519 5.42274 21.3546C4.86261 21.1369 4.46287 20.8769 4.04297 20.457C3.62308 20.0371 3.363 19.6373 3.14531 19.0772C2.98097 18.6543 2.78548 18.019 2.73213 16.849C2.6744 15.5836 2.66216 15.2041 2.66216 11.9999C2.66216 8.79584 2.6744 8.41629 2.73213 7.15095C2.78548 5.98096 2.98097 5.34557 3.14531 4.92273C3.363 4.3626 3.62303 3.96286 4.04297 3.54296C4.46287 3.12302 4.86261 2.86299 5.42274 2.6453C5.84559 2.48096 6.48098 2.28548 7.65097 2.23213C8.91632 2.17439 9.29587 2.16215 12.5 2.16215ZM12.5 0C9.24099 0 8.83234 0.0138138 7.55241 0.072213C6.27515 0.130469 5.40283 0.333342 4.63954 0.629959C3.85044 0.936626 3.18123 1.34694 2.51406 2.01406C1.84695 2.68122 1.43663 3.35043 1.13001 4.13953C0.833343 4.90282 0.63047 5.77514 0.572213 7.05239C0.513814 8.33232 0.5 8.74097 0.5 11.9999C0.5 15.259 0.513814 15.6676 0.572213 16.9475C0.63047 18.2248 0.833343 19.0971 1.13001 19.8604C1.43663 20.6495 1.84695 21.3187 2.51406 21.9859C3.18123 22.653 3.85044 23.0633 4.63954 23.3699C5.40283 23.6666 6.27515 23.8695 7.55241 23.9277C8.83234 23.9861 9.24099 23.9999 12.5 23.9999C15.759 23.9999 16.1677 23.9861 17.4476 23.9277C18.7248 23.8695 19.5972 23.6666 20.3605 23.3699C21.1496 23.0633 21.8188 22.653 22.4859 21.9859C23.153 21.3187 23.5634 20.6495 23.87 19.8604C24.1667 19.0971 24.3695 18.2248 24.4278 16.9475C24.4862 15.6676 24.5 15.259 24.5 11.9999C24.5 8.74097 24.4862 8.33232 24.4278 7.05239C24.3695 5.77514 24.1667 4.90282 23.87 4.13953C23.5634 3.35043 23.153 2.68122 22.4859 2.01406C21.8188 1.34694 21.1496 0.936626 20.3605 0.629959C19.5972 0.333342 18.7248 0.130469 17.4476 0.072213C16.1677 0.0138138 15.759 0 12.5 0Z" fill="white"/>
<path d="M12.5059 5.84375C9.10262 5.84375 6.34375 8.60261 6.34375 12.0059C6.34375 15.4092 9.10262 18.168 12.5059 18.168C15.9092 18.168 18.6681 15.4092 18.6681 12.0059C18.6681 8.60261 15.9092 5.84375 12.5059 5.84375ZM12.5059 16.0059C10.2968 16.0059 8.50591 14.215 8.50591 12.0059C8.50591 9.79675 10.2968 8.0059 12.5059 8.0059C14.7151 8.0059 16.5059 9.79675 16.5059 12.0059C16.5059 14.215 14.7151 16.0059 12.5059 16.0059Z" fill="white"/>
<path d="M20.3488 5.59627C20.3488 6.39152 19.704 7.03625 18.9087 7.03625C18.1135 7.03625 17.4688 6.39152 17.4688 5.59627C17.4688 4.80098 18.1135 4.15625 18.9087 4.15625C19.704 4.15625 20.3488 4.80098 20.3488 5.59627Z" fill="white"/>
</svg>
