<svg width="25" height="25" viewBox="0 0 25 20" fill="none" xmlns="http://www.w3.org/2000/svg">
<path fill-rule="evenodd" clip-rule="evenodd" d="M24.5 2.30865C23.6177 2.70062 22.6681 2.9646 21.6722 3.08379C22.6889 2.47423 23.4697 1.5095 23.8368 0.359973C22.8865 0.924736 21.8314 1.33351 20.7107 1.5551C19.8123 0.59836 18.5316 0 17.1165 0C14.3975 0 12.1928 2.20465 12.1928 4.92367C12.1928 5.30924 12.2368 5.68522 12.3208 6.04599C8.22829 5.84121 4.60053 3.88054 2.17189 0.901539C1.74792 1.62869 1.50553 2.47424 1.50553 3.37658C1.50553 5.08447 2.37347 6.59157 3.69579 7.47471C2.88784 7.44911 2.12949 7.22752 1.46473 6.85875V6.92034C1.46473 9.30658 3.16302 11.296 5.41407 11.7496C5.0013 11.8616 4.56613 11.9224 4.11736 11.9224C3.79978 11.9224 3.491 11.8912 3.19022 11.8336C3.81658 13.7895 5.63566 15.2134 7.78991 15.2534C6.10523 16.5733 3.98217 17.3612 1.67512 17.3612C1.27675 17.3612 0.884774 17.338 0.5 17.2916C2.67905 18.6883 5.26688 19.5043 8.0475 19.5043C17.1037 19.5043 22.0562 12.0016 22.0562 5.49563C22.0562 5.28204 22.0522 5.06927 22.0418 4.85888C23.0049 4.16293 23.84 3.29578 24.5 2.30865Z" fill="white"/>
</svg>
