<svg width="25" height="25" viewBox="0 0 27 18" fill="none" xmlns="http://www.w3.org/2000/svg">
<path fill-rule="evenodd" clip-rule="evenodd" d="M24.8005 1.37807C25.1996 1.77717 25.4872 2.27386 25.6346 2.81868C26.4835 6.23572 26.2873 11.6324 25.6511 15.1813C25.5037 15.7261 25.2161 16.2228 24.817 16.6219C24.4179 17.021 23.9212 17.3086 23.3764 17.456C21.3819 18 13.3544 18 13.3544 18C13.3544 18 5.32691 18 3.3324 17.456C2.78759 17.3086 2.29089 17.021 1.89179 16.6219C1.49269 16.2228 1.20511 15.7261 1.05768 15.1813C0.203833 11.7791 0.4379 6.37912 1.0412 2.83517C1.18862 2.29035 1.47621 1.79365 1.87531 1.39455C2.27441 0.99545 2.7711 0.707864 3.31592 0.560444C5.31043 0.0164795 13.3379 0 13.3379 0C13.3379 0 21.3654 0 23.3599 0.543954C23.9047 0.691384 24.4014 0.97897 24.8005 1.37807ZM17.4423 8.99999L10.783 12.8571V5.14285L17.4423 8.99999Z" fill="white"/>
</svg>
