<svg width="54" height="54" viewBox="0 0 54 54" fill="none" xmlns="http://www.w3.org/2000/svg">
<g clip-path="url(#clip0_243_134)">
<path d="M25.8336 34.4264C28.2833 34.4176 33.6393 34.3977 33.5775 30.991C33.518 27.5071 28.3737 27.7166 25.8666 27.8202C25.5866 27.8312 25.3374 27.8422 25.1346 27.8444L25.2492 34.4308C25.4146 34.4264 25.6131 34.4264 25.8336 34.4264ZM25.5734 24.828C27.6174 24.8258 32.0781 24.8214 32.0252 21.7234C31.9679 18.5548 27.6836 18.7422 25.591 18.8348C25.3551 18.8458 25.15 18.8547 24.978 18.8569L25.0817 24.8302L25.5734 24.828Z" fill="#4C6492"/>
<path fill-rule="evenodd" clip-rule="evenodd" d="M20.7873 52.8736C34.9655 56.4082 49.3244 47.78 52.859 33.6063C56.3937 19.4304 47.7633 5.0714 33.5851 1.53899C19.4158 -1.99783 5.05684 6.63254 1.52443 20.8107C-2.01018 34.9844 6.61798 49.3434 20.7895 52.8758L20.7873 52.8736ZM30.2291 15.3445C34.0967 15.6179 37.1749 16.7513 37.5784 20.2881C37.8783 22.8768 36.8199 24.4533 35.1022 25.3662C37.9687 26.0013 39.7878 27.666 39.5011 31.4763C39.1461 36.206 35.6468 37.5356 30.6238 37.9105L30.7076 42.8717L27.7176 42.9268L27.6316 38.0317C26.8577 38.045 26.0639 38.0538 25.2414 38.0494L25.3296 42.9665L22.3396 43.0194L22.2514 38.0494L21.4069 38.056C20.9791 38.0582 20.547 38.0604 20.1148 38.0692L16.2208 38.1354L16.7522 34.5545C16.7522 34.5545 18.966 34.55 18.9263 34.517C19.773 34.4993 19.9869 33.8885 20.0332 33.5049L19.8987 25.6617L20.1126 25.6573H20.214C20.1086 25.6452 20.0026 25.64 19.8965 25.6418L19.7995 20.0411C19.6738 19.437 19.2681 18.7402 18.0575 18.7622C18.0906 18.7181 15.8834 18.7997 15.8834 18.7997L15.8261 15.6069L19.9538 15.5363V15.5518C20.5734 15.5407 21.2107 15.5187 21.8567 15.4944L21.7729 10.5795L24.7629 10.5288L24.8467 15.3445C25.6449 15.3158 26.4475 15.285 27.2347 15.2717L27.1509 10.4869L30.1431 10.434L30.2291 15.3489V15.3445Z" fill="#5282DF"/>
</g>
<defs>
<clipPath id="clip0_243_134">
<rect width="52.92" height="52.92" fill="white" transform="translate(0.730225 0.744751)"/>
</clipPath>
</defs>
</svg>
