<svg width="70" height="169" viewBox="0 0 270 369" fill="none" xmlns="http://www.w3.org/2000/svg">
<g clip-path="url(#clip0_37_121)">
<path d="M233.159 241.152L269.494 241.332C268.515 245.994 267.294 250.601 265.836 255.136C264.897 258.049 263.505 262.041 261.538 266.681C259.511 271.465 257.214 276.13 254.658 280.652C253.224 283.186 251.799 285.516 250.425 287.641C247.793 291.702 244.948 295.621 241.902 299.38C240.269 301.394 237.881 304.22 234.816 307.447C231.555 310.877 228.464 313.772 225.733 316.163C222.137 319.311 218.378 322.267 214.471 325.019C210.996 327.466 207.964 329.354 205.728 330.696C201.452 333.238 197.038 335.542 192.507 337.595C189.616 338.903 186.155 340.346 182.199 341.757C180.131 342.492 177.269 343.454 173.808 344.446C171.009 345.241 168.442 345.868 166.215 346.364V309.781C167.777 309.306 169.751 308.657 172.001 307.8C173.14 307.363 175.877 306.291 179.317 304.627C179.937 304.328 182.181 303.228 185.052 301.6C186.563 300.742 189.038 299.287 191.992 297.3C194.12 295.866 195.825 294.611 196.982 293.715C199.776 291.594 202.462 289.334 205.031 286.944C206.336 285.731 207.347 284.73 207.937 284.136C209.278 282.791 211.592 280.392 214.126 277.333C217.105 273.731 219.829 269.925 222.278 265.943C225.372 260.892 228.006 255.573 230.151 250.05C231.54 246.552 232.5 243.501 233.159 241.152Z" fill="white"/>
<path d="M73.0001 92.9247V135.352C65.6269 141.228 59.1477 148.15 53.7668 155.9C51.565 159.066 49.5495 162.358 47.7304 165.76C45.8192 169.346 44.1269 173.044 42.6627 176.836C34.7519 197.315 33.6839 219.813 39.6191 240.952C42.9471 252.797 48.4297 263.923 55.7909 273.771C58.4661 277.355 61.3749 280.758 64.4984 283.957C67.4018 286.944 70.0012 289.224 71.8792 290.799C74.7393 293.194 77.7298 295.429 80.8371 297.492C82.5332 298.621 84.8584 300.091 87.6933 301.675C90.8472 303.426 93.5509 304.707 95.4438 305.559C97.9926 306.7 100.997 307.916 104.423 309.07V345.889C101.74 345.232 98.5351 344.365 94.9579 343.2C90.3434 341.706 86.3817 340.173 83.1771 338.808C78.4374 336.788 74.6843 334.873 72.2638 333.579C67.4942 331.033 63.8276 328.7 61.6068 327.236C57.5622 324.565 53.6643 321.678 49.9303 318.586C42.717 312.609 36.156 305.883 30.3573 298.519C28.8459 296.601 26.2525 293.195 23.3252 288.698C20.273 283.99 17.5076 279.101 15.044 274.058C12.8873 269.637 10.9561 265.11 9.25795 260.493C7.31207 255.207 5.66985 249.814 4.33935 244.341C1.2893 232.479 0.0431212 220.224 0.642935 207.99C0.931551 201.922 1.61666 195.88 2.69385 189.902C3.67533 184.385 4.98128 178.932 6.60488 173.57C8.00106 168.954 9.63585 164.415 11.5026 159.969C13.0408 156.315 14.4478 153.417 15.36 151.603C17.6196 147.121 19.751 143.5 21.3219 140.975C23.7064 137.147 26.2823 133.441 29.0397 129.873C31.0638 127.252 33.8092 123.897 37.2761 120.201C41.7842 115.392 46.6362 110.919 51.7934 106.818C53.8801 105.163 57.3857 102.471 61.9794 99.4561C65.9262 96.8507 69.6554 94.6905 73.0001 92.9247Z" fill="white"/>
<path d="M268.433 180.819C267.348 176.423 266.146 172.494 264.972 169.082C263.448 164.649 261.696 160.298 259.725 156.046C257.829 151.95 255.933 148.394 254.222 145.418C251.945 141.456 249.793 138.176 248.058 135.675C246.111 132.866 243.357 129.123 239.783 124.919C236.56 121.139 233.135 117.539 229.522 114.132C226.243 111.046 223.39 108.665 221.405 107.072C216.87 103.438 212.107 100.101 207.144 97.0807C204.461 95.4434 200.994 93.4654 196.851 91.4038V132.822C198.27 133.894 200.079 135.325 202.112 137.091C207.713 141.986 212.782 147.459 217.237 153.42C219.423 156.36 221.008 158.825 221.906 160.268C225.994 166.869 229.31 173.92 231.788 181.282L268.433 180.819Z" fill="white"/>
<path d="M179.042 84.0118C176.061 83.0258 171.673 81.6962 166.304 80.4832V53.6581C166.07 46.1545 164.69 38.7311 162.212 31.6466C154.673 10.5702 139.586 2.2699 135.383 0.169434C130.569 2.96308 117.908 11.3052 110.146 30.1526C106.309 39.4628 104.944 48.2382 104.431 54.3065V80.9732C100.923 81.8187 98.079 82.6583 96.2755 83.2141C93.4346 84.0925 89.8426 85.3056 85.7557 86.9519C82.8731 88.1112 80.3392 89.2496 78.1899 90.2714C78.1899 103.914 78.1899 117.559 78.1899 131.205C85.2541 126.171 92.9382 122.073 101.051 119.015C102.079 118.626 103.212 118.22 104.446 117.819V368.202H123.644C123.596 283.283 123.547 198.368 123.498 113.457C128.763 112.778 134.074 112.516 139.38 112.674C142.063 112.752 144.523 112.931 146.761 113.161L147.03 368.202H166.23C166.256 284.518 166.282 200.836 166.307 117.156C167.658 117.577 168.895 117.993 170.01 118.39C177.647 121.101 184.927 124.731 191.69 129.2V88.9089C187.559 87.0643 183.338 85.4298 179.042 84.0118ZM146.711 77.561L146.836 77.579L146.711 77.561ZM150.499 61.5073C150.243 62.452 149.83 63.3469 149.277 64.1545C148.678 65.0033 147.934 65.7396 147.08 66.3297C146.286 66.872 145.416 67.2929 144.499 67.5786C143.851 67.7916 143.188 67.9573 142.516 68.0746C141.92 68.1821 141.404 68.2419 141.011 68.2748V73.1121H137.237V68.3734H133.66V73.1061H129.883V68.3734H122.815V63.6914H125.739C125.956 63.6858 126.165 63.6104 126.336 63.4763C126.554 63.31 126.712 63.0756 126.783 62.81C126.783 62.565 126.804 62.2124 126.819 61.7493C126.92 58.131 126.848 56.395 126.819 52.4869V40.5504C126.817 40.3653 126.772 40.1833 126.687 40.0185C126.63 39.9074 126.554 39.8065 126.464 39.7198C126.391 39.6508 126.31 39.5906 126.222 39.5405C126.05 39.4491 125.859 39.4 125.665 39.3971H122.812V34.7151H129.88V29.9913H133.654V34.7151H137.231V29.9913H141.005V34.9063C142.161 35.0501 143.287 35.3737 144.344 35.8654C145.228 36.2495 146.045 36.7752 146.761 37.4221C148.176 38.7082 149.095 40.4506 149.361 42.3461C149.569 43.6214 149.515 44.9258 149.203 46.1795C149.013 46.9187 148.723 47.6284 148.341 48.289C147.92 48.9992 147.386 49.6359 146.761 50.1743C147.266 50.5764 147.746 51.0095 148.198 51.471C148.607 51.867 148.983 52.2957 149.322 52.7528C149.871 53.5265 150.281 54.3899 150.535 55.3045C150.801 56.2156 150.934 57.1607 150.929 58.1101C150.956 59.2578 150.81 60.4031 150.496 61.5073H150.499ZM143.375 54.9519C142.985 54.6558 142.54 54.4405 142.066 54.3185C141.722 54.2052 141.368 54.1251 141.008 54.0794C140.644 54.0286 140.114 53.9629 139.434 53.9211C138.462 53.8583 137.753 53.8822 137.234 53.8942C136.414 53.9151 135.216 53.927 133.657 53.8942V62.2243C135.216 62.1646 136.414 62.1885 137.234 62.2243C137.565 62.2243 138.426 62.2751 139.577 62.2094C140.057 62.1915 140.535 62.1406 141.008 62.057C141.712 61.9691 142.388 61.7285 142.99 61.3519C143.495 61.0178 143.906 60.5588 144.183 60.0193C144.452 59.4197 144.573 58.7636 144.534 58.1071C144.572 57.5581 144.507 57.0069 144.344 56.4817C144.177 55.8878 143.84 55.356 143.375 54.9519ZM138.23 47.7541C138.471 47.7541 138.662 47.7541 138.927 47.7541C139.472 47.7396 140.016 47.6827 140.552 47.5838C140.865 47.5326 141.172 47.4526 141.47 47.3448C141.76 47.2547 142.033 47.1196 142.281 46.9444C142.697 46.607 142.996 46.1471 143.136 45.6297C143.247 45.2534 143.3 44.8627 143.294 44.4705C143.325 44.0132 143.287 43.5539 143.181 43.108C143.135 42.8156 143.03 42.5357 142.872 42.2851C142.715 42.0345 142.509 41.8185 142.266 41.6499C142.115 41.5439 141.954 41.4529 141.786 41.378C141.536 41.2623 141.276 41.1712 141.008 41.1061C140.743 41.0404 140.513 40.9956 140.334 40.9657C140.078 40.9209 139.875 40.9 139.72 40.882C139.72 40.882 139.422 40.8492 139.124 40.8342C138.057 40.7685 135.8 40.7984 135.8 40.7984C135.285 40.7984 134.551 40.7984 133.654 40.7984V47.7661L138.23 47.7541Z" fill="#EFB91C"/>
</g>
<defs>
<clipPath id="clip0_37_121">
<rect width="269" height="368" fill="white" transform="translate(0.5 0.166504)"/>
</clipPath>
</defs>
</svg>
