<svg width="38" height="50" viewBox="0 0 38 50" fill="none" xmlns="http://www.w3.org/2000/svg">
<g clip-path="url(#clip0_37_172)">
<path d="M32.5013 32.7427L37.4991 32.767C37.3644 33.4004 37.1965 34.0265 36.996 34.6426C36.8668 35.0384 36.6754 35.5807 36.4047 36.2112C36.126 36.8612 35.81 37.495 35.4584 38.1095C35.2612 38.4537 35.0652 38.7704 34.8762 39.059C34.5142 39.6108 34.1229 40.1432 33.7039 40.654C33.4792 40.9276 33.1508 41.3117 32.7293 41.7501C32.2807 42.2161 31.8555 42.6095 31.48 42.9343C30.9853 43.362 30.4682 43.7637 29.9309 44.1376C29.4528 44.47 29.0358 44.7266 28.7283 44.9089C28.1401 45.2544 27.533 45.5673 26.9099 45.8462C26.5121 46.024 26.0361 46.2201 25.492 46.4117C25.2074 46.5116 24.8138 46.6423 24.3378 46.7771C23.9528 46.8851 23.5997 46.9703 23.2935 47.0377V42.0672C23.5083 42.0026 23.7797 41.9145 24.0893 41.798C24.2459 41.7387 24.6223 41.593 25.0955 41.3669C25.1808 41.3263 25.4895 41.1769 25.8844 40.9556C26.0923 40.8391 26.4326 40.6414 26.8389 40.3715C27.1317 40.1766 27.3662 40.0061 27.5253 39.8843C27.9096 39.5962 28.2791 39.2891 28.6324 38.9644C28.8119 38.7996 28.9509 38.6636 29.0321 38.5828C29.2166 38.4001 29.5348 38.0741 29.8833 37.6584C30.2931 37.1691 30.6678 36.652 31.0047 36.1109C31.4302 35.4247 31.7926 34.702 32.0876 33.9516C32.2787 33.4762 32.4107 33.0618 32.5013 32.7427Z" fill="white"/>
<path d="M10.4721 12.603V18.3677C9.45796 19.166 8.56677 20.1065 7.82665 21.1594C7.5238 21.5896 7.24656 22.0369 6.99635 22.4991C6.73348 22.9863 6.5007 23.4889 6.29932 24.004C5.21121 26.7864 5.06431 29.8433 5.88068 32.7155C6.33843 34.3248 7.09254 35.8365 8.10505 37.1745C8.47301 37.6615 8.87311 38.1238 9.30273 38.5585C9.70209 38.9644 10.0596 39.2742 10.3179 39.4881C10.7113 39.8136 11.1227 40.1171 11.5501 40.3974C11.7834 40.5509 12.1032 40.7506 12.4931 40.9658C12.9269 41.2037 13.2988 41.3778 13.5592 41.4935C13.9097 41.6486 14.323 41.8138 14.7942 41.9705V46.9732C14.4251 46.8839 13.9844 46.7661 13.4923 46.6078C12.8576 46.4048 12.3127 46.1966 11.8719 46.0111C11.22 45.7366 10.7038 45.4764 10.3708 45.3006C9.7148 44.9548 9.21047 44.6377 8.90501 44.4388C8.34868 44.0759 7.81255 43.6836 7.29895 43.2635C6.30678 42.4514 5.40434 41.5375 4.60674 40.5371C4.39886 40.2765 4.04214 39.8137 3.6395 39.2027C3.21969 38.563 2.83932 37.8987 2.50046 37.2135C2.20381 36.6129 1.93818 35.9978 1.70461 35.3705C1.43696 34.6523 1.21108 33.9196 1.02807 33.1758C0.608548 31.5642 0.43714 29.8992 0.519642 28.2369C0.55934 27.4125 0.653574 26.5915 0.801738 25.7793C0.936737 25.0297 1.11637 24.2888 1.33969 23.5603C1.53173 22.9332 1.75659 22.3163 2.01335 21.7124C2.22492 21.2159 2.41846 20.8221 2.54392 20.5757C2.85472 19.9667 3.14788 19.4747 3.36397 19.1317C3.69195 18.6114 4.04625 18.108 4.42551 17.6231C4.70392 17.2671 5.08155 16.8112 5.55841 16.309C6.17848 15.6557 6.84585 15.048 7.55522 14.4907C7.84223 14.2658 8.32442 13.9001 8.95626 13.4905C9.49913 13.1365 10.0121 12.8429 10.4721 12.603Z" fill="white"/>
<path d="M37.3532 24.5452C37.2039 23.9481 37.0387 23.4142 36.8772 22.9506C36.6675 22.3483 36.4266 21.7571 36.1555 21.1794C35.8947 20.6228 35.634 20.1398 35.3986 19.7354C35.0854 19.1971 34.7893 18.7514 34.5507 18.4116C34.2829 18.03 33.9041 17.5213 33.4125 16.9501C32.9692 16.4367 32.4981 15.9474 32.0012 15.4846C31.5501 15.0653 31.1578 14.7417 30.8847 14.5253C30.261 14.0316 29.6058 13.5781 28.9231 13.1678C28.5541 12.9453 28.0773 12.6766 27.5073 12.3965V18.0239C27.7025 18.1696 27.9514 18.3641 28.231 18.604C29.0013 19.2691 29.6987 20.0127 30.3115 20.8226C30.612 21.222 30.8301 21.557 30.9536 21.753C31.5159 22.6499 31.972 23.6079 32.3128 24.6082L37.3532 24.5452Z" fill="white"/>
<path d="M25.0579 11.3921C24.6479 11.2582 24.0443 11.0775 23.3059 10.9127V7.26798C23.2736 6.24846 23.0838 5.23985 22.7429 4.27727C21.706 1.41363 19.6309 0.285878 19.0527 0.000488281C18.3905 0.38006 16.6492 1.5135 15.5815 4.07429C15.0538 5.33926 14.866 6.53156 14.7955 7.35607V10.9793C14.3129 11.0941 13.9217 11.2082 13.6736 11.2837C13.2829 11.4031 12.7888 11.5679 12.2267 11.7916C11.8302 11.9491 11.4817 12.1038 11.186 12.2426C11.186 14.0962 11.186 15.9501 11.186 17.8042C12.1577 17.1202 13.2146 16.5635 14.3305 16.1479C14.472 16.0952 14.6278 16.0399 14.7975 15.9855V50.005H17.4381C17.4315 38.467 17.4248 26.9297 17.418 15.3928C18.1422 15.3006 18.8727 15.265 19.6026 15.2865C19.9716 15.297 20.3099 15.3214 20.6178 15.3527L20.6547 50.005H23.2956C23.2992 38.6348 23.3027 27.265 23.3063 15.8954C23.492 15.9527 23.6622 16.0091 23.8155 16.0631C24.866 16.4314 25.8673 16.9246 26.7976 17.5318V12.0575C26.2294 11.8069 25.6488 11.5848 25.0579 11.3921ZM20.6108 10.5157L20.628 10.5181L20.6108 10.5157ZM21.1319 8.33443C21.0966 8.46279 21.0398 8.58438 20.9638 8.69411C20.8814 8.80943 20.7791 8.90948 20.6616 8.98965C20.5524 9.06333 20.4328 9.12052 20.3066 9.15934C20.2174 9.18828 20.1263 9.2108 20.0339 9.22673C19.9519 9.24134 19.881 9.24946 19.8268 9.25393V9.91118H19.3078V9.26733H18.8157V9.91037H18.2962V9.26733H17.3241V8.63119H17.7263C17.7561 8.63043 17.7849 8.62018 17.8083 8.60196C17.8384 8.57937 17.86 8.54752 17.8698 8.51143C17.8698 8.47814 17.8727 8.43024 17.8747 8.36731C17.8887 7.8757 17.8788 7.63983 17.8747 7.10884V5.48703C17.8744 5.46189 17.8683 5.43715 17.8567 5.41477C17.8487 5.39967 17.8384 5.38596 17.8259 5.37417C17.8159 5.3648 17.8047 5.35663 17.7927 5.34982C17.7691 5.3374 17.7428 5.33072 17.716 5.33033H17.3237V4.69419H18.2958V4.05237H18.8149V4.69419H19.3069V4.05237H19.826V4.72017C19.985 4.7397 20.14 4.78367 20.2852 4.85049C20.4069 4.90267 20.5193 4.9741 20.6178 5.06199C20.8123 5.23674 20.9388 5.47347 20.9753 5.73101C21.004 5.90428 20.9966 6.08152 20.9536 6.25186C20.9274 6.35229 20.8876 6.44871 20.8351 6.53847C20.7772 6.63496 20.7038 6.72148 20.6178 6.79463C20.6873 6.84926 20.7533 6.9081 20.8154 6.97081C20.8716 7.02461 20.9233 7.08286 20.97 7.14497C21.0455 7.25008 21.102 7.36739 21.1369 7.49166C21.1735 7.61545 21.1917 7.74386 21.191 7.87286C21.1947 8.0288 21.1747 8.18441 21.1315 8.33443H21.1319ZM20.152 7.44376C20.0984 7.40353 20.0372 7.37427 19.972 7.35769C19.9246 7.3423 19.8759 7.33142 19.8264 7.32521C19.7764 7.31831 19.7034 7.30938 19.6099 7.3037C19.4763 7.29517 19.3787 7.29842 19.3073 7.30005C19.1946 7.30289 19.0298 7.30451 18.8153 7.30005V8.43186C19.0298 8.42374 19.1946 8.42699 19.3073 8.43186C19.3529 8.43186 19.4714 8.43876 19.6296 8.42983C19.6956 8.42741 19.7614 8.42049 19.8264 8.40913C19.9233 8.39719 20.0163 8.36449 20.0991 8.31332C20.1686 8.26793 20.2251 8.20557 20.2631 8.13226C20.3002 8.05079 20.3168 7.96165 20.3115 7.87245C20.3167 7.79786 20.3078 7.72297 20.2852 7.65161C20.2623 7.57092 20.216 7.49867 20.152 7.44376ZM19.4443 6.4658C19.4775 6.4658 19.5037 6.4658 19.5402 6.4658C19.6152 6.46383 19.6899 6.45609 19.7637 6.44266C19.8067 6.4357 19.849 6.42483 19.89 6.41018C19.9298 6.39794 19.9674 6.37958 20.0015 6.35578C20.0587 6.30995 20.0999 6.24745 20.1192 6.17716C20.1344 6.12603 20.1417 6.07294 20.1409 6.01965C20.1452 5.95752 20.1399 5.89511 20.1253 5.83453C20.119 5.79481 20.1045 5.75678 20.0829 5.72273C20.0612 5.68868 20.0329 5.65932 19.9995 5.63642C19.9787 5.62202 19.9566 5.60965 19.9334 5.59948C19.8991 5.58376 19.8632 5.57138 19.8264 5.56254C19.7899 5.55361 19.7584 5.54752 19.7338 5.54346C19.6985 5.53737 19.6706 5.53453 19.6493 5.53209C19.6493 5.53209 19.6083 5.52763 19.5673 5.5256C19.4205 5.51667 19.1101 5.52073 19.1101 5.52073C19.0392 5.52073 18.9383 5.52073 18.8149 5.52073V6.46742L19.4443 6.4658Z" fill="#EFB91C"/>
</g>
<defs>
<clipPath id="clip0_37_172">
<rect width="37" height="50" fill="white" transform="translate(0.5)"/>
</clipPath>
</defs>
</svg>
