<svg width="60" height="60" viewBox="0 0 59 68" fill="none" xmlns="http://www.w3.org/2000/svg">
<path fill-rule="evenodd" clip-rule="evenodd" d="M29.5 0.954956C26.6106 0.954956 21.7825 2.06464 17.239 3.29996C12.5909 4.55621 7.90508 6.04277 5.14971 6.94308C3.99769 7.32352 2.97636 8.02122 2.20304 8.95602C1.42972 9.89082 0.935775 11.0248 0.77796 12.2277C-1.71779 30.9751 4.07352 44.8693 11.1001 54.0608C14.0799 57.9927 17.6328 61.4553 21.6401 64.3328C23.2565 65.476 24.7556 66.3511 26.0286 66.95C27.2011 67.5027 28.4615 67.955 29.5 67.955C30.5385 67.955 31.7948 67.5027 32.9715 66.95C34.5061 66.204 35.9743 65.3285 37.36 64.3328C41.3674 61.4554 44.9202 57.9928 47.8999 54.0608C54.9265 44.8693 60.7178 30.9751 58.2221 12.2277C58.0645 11.0242 57.5708 9.88958 56.7975 8.95406C56.0241 8.01854 55.0027 7.32008 53.8503 6.93889C49.8505 5.62742 45.8195 4.4127 41.761 3.29577C37.2176 2.06883 32.3894 0.954956 29.5 0.954956ZM29.5 21.8925C30.9834 21.8902 32.4197 22.4131 33.5545 23.3684C34.6893 24.3237 35.4494 25.6498 35.7002 27.1118C35.951 28.5738 35.6763 30.0774 34.9246 31.3563C34.173 32.6352 32.9931 33.6068 31.5938 34.099L33.206 42.4321C33.2646 42.7352 33.2555 43.0475 33.1793 43.3467C33.1031 43.6459 32.9617 43.9245 32.7652 44.1626C32.5688 44.4007 32.322 44.5924 32.0428 44.724C31.7635 44.8556 31.4586 44.9238 31.1499 44.9237H27.8501C27.5418 44.9232 27.2374 44.8545 26.9586 44.7226C26.6799 44.5908 26.4337 44.399 26.2377 44.161C26.0416 43.9229 25.9006 43.6445 25.8246 43.3457C25.7487 43.0468 25.7397 42.7349 25.7983 42.4321L27.4063 34.099C26.007 33.6068 24.827 32.6352 24.0754 31.3563C23.3238 30.0774 23.049 28.5738 23.2998 27.1118C23.5506 25.6498 24.3107 24.3237 25.4455 23.3684C26.5804 22.4131 28.0166 21.8902 29.5 21.8925Z" fill="#EFB91C"/>
</svg>
