<svg width="60" height="60" viewBox="0 0 63 63" fill="none" xmlns="http://www.w3.org/2000/svg">
<path d="M55.6719 25.0331L51.8333 23.2883L55.6719 21.5435L57.4167 17.705L59.1615 21.5435L63 23.2883L59.1615 25.0331L57.4167 28.8716L55.6719 25.0331ZM46.3896 11.982L40.6667 9.32996L46.3896 6.67787L49.0417 0.954956L51.6938 6.67787L57.4167 9.32996L51.6938 11.982L49.0417 17.705L46.3896 11.982ZM21.125 62.3716C19.5896 62.3716 18.2756 61.8254 17.1832 60.7329C16.0888 59.6386 15.5417 58.3237 15.5417 56.7883H26.7083C26.7083 58.3237 26.1621 59.6386 25.0696 60.7329C23.9753 61.8254 22.6604 62.3716 21.125 62.3716ZM12.75 53.9966C11.959 53.9966 11.2955 53.7286 10.7595 53.1926C10.2254 52.6585 9.95833 51.9959 9.95833 51.205C9.95833 50.414 10.2254 49.7514 10.7595 49.2173C11.2955 48.6813 11.959 48.4133 12.75 48.4133H29.5C30.291 48.4133 30.9545 48.6813 31.4905 49.2173C32.0246 49.7514 32.2917 50.414 32.2917 51.205C32.2917 51.9959 32.0246 52.6585 31.4905 53.1926C30.9545 53.7286 30.291 53.9966 29.5 53.9966H12.75ZM10.6562 45.6216C7.44583 43.714 4.8989 41.155 3.01546 37.9445C1.13015 34.7341 0.1875 31.2445 0.1875 27.4758C0.1875 21.6598 2.22356 16.7167 6.29567 12.6465C10.3659 8.57435 15.309 6.53829 21.125 6.53829C26.941 6.53829 31.8841 8.57435 35.9543 12.6465C40.0264 16.7167 42.0625 21.6598 42.0625 27.4758C42.0625 31.2445 41.1208 34.7341 39.2373 37.9445C37.352 41.155 34.8042 43.714 31.5938 45.6216H10.6562Z" fill="#EFB91C"/>
</svg>
