<svg width="60" height="60" viewBox="0 0 57 51" fill="none" xmlns="http://www.w3.org/2000/svg">
<path d="M50.8335 11.4966V5.91329C50.8335 2.83408 48.3294 0.329956 45.2502 0.329956H8.9585C4.34108 0.329956 0.583496 4.08754 0.583496 8.70496V42.205C0.583496 48.3494 5.59175 50.58 8.9585 50.58H50.8335C53.9127 50.58 56.4168 48.0758 56.4168 44.9966V17.08C56.4168 14.0007 53.9127 11.4966 50.8335 11.4966ZM45.2502 36.6216H39.6668V25.455H45.2502V36.6216ZM8.9585 11.4966C8.2397 11.4645 7.561 11.1563 7.06372 10.6363C6.56645 10.1163 6.28892 9.42447 6.28892 8.70496C6.28892 7.98544 6.56645 7.29365 7.06372 6.77363C7.561 6.25361 8.2397 5.94544 8.9585 5.91329H45.2502V11.4966H8.9585Z" fill="#EFB91C"/>
</svg>
