<svg width="106" height="105" viewBox="0 0 106 105" fill="none" xmlns="http://www.w3.org/2000/svg">
<rect x="0.834473" y="0.218552" width="104.766" height="104.766" rx="52.3829" fill="#1F3141"/>
<path d="M77.853 58.7424C74.4615 72.3604 60.6749 80.6274 47.074 77.2383C33.47 73.8731 25.1834 60.0568 28.5812 46.4737C31.9648 32.8589 45.7594 24.5745 59.3523 27.9635C72.9642 31.362 81.2508 45.1372 77.853 58.7519V58.7424ZM64.4141 48.9802C64.9174 45.6149 62.3452 43.7974 58.8235 42.5736L59.9667 38.0163L57.1786 37.313L56.0719 41.7783C55.3431 41.5878 54.5842 41.4227 53.8221 41.2497L54.9319 36.7432L52.1358 36.0495L50.9942 40.629L49.2159 40.2084L45.3799 39.248L44.6352 42.2339C44.6352 42.2339 46.7041 42.7037 46.6533 42.7291C47.7885 43.0196 47.9933 43.753 47.9616 44.3498L44.8353 56.882C44.6781 57.2313 44.3224 57.744 43.5381 57.544C43.5635 57.5836 41.5041 57.0408 41.5041 57.0408L40.1069 60.2298L43.7286 61.1314L45.6958 61.6441L44.5463 66.284L47.3424 66.9697L48.4919 62.3806C49.2525 62.5965 49.9797 62.7854 50.7069 62.96L49.6335 67.5142L52.428 68.2174L53.5775 63.5807C58.3234 64.4807 61.8975 64.1252 63.4027 59.8266C64.6094 56.3614 63.3344 54.3708 60.8305 53.0644C62.6326 52.6501 64.006 51.4517 64.3855 48.9802H64.4141ZM58.0376 57.917C57.1866 61.3886 51.3563 59.5044 49.4636 59.0329L50.9927 52.8993C52.8869 53.3867 58.9395 54.32 58.0376 57.917ZM58.9077 48.9389C58.1202 52.0961 53.2743 50.5008 51.6944 50.1024L53.0853 44.5149C54.6556 44.8943 59.7238 45.6213 58.9077 48.9294V48.9389Z" fill="#EFB91C"/>
</svg>
