<svg width="101" height="105" viewBox="0 0 101 105" fill="none" xmlns="http://www.w3.org/2000/svg">
<rect x="0.756836" y="0.218552" width="100.004" height="104.766" rx="50.0019" fill="#1F3141"/>
<path d="M51.3354 72.5613C50.8679 73.0187 50.0369 73.095 49.4915 72.5613C49.2482 72.3215 49.1117 71.9972 49.1117 71.6593C49.1117 71.3213 49.2482 70.9971 49.4915 70.7572L45.8297 67.1743C45.3362 67.6825 44.5052 67.6571 43.9858 67.1743C43.7425 66.9344 43.606 66.6101 43.606 66.2722C43.606 65.9343 43.7425 65.61 43.9858 65.3701L40.3239 61.7872C39.8565 62.2446 39.0254 62.3208 38.48 61.7872C38.2423 61.5445 38.1095 61.2213 38.1095 60.8851C38.1095 60.5489 38.2423 60.2257 38.48 59.9831L34.7922 56.4002C34.3248 56.8575 33.4937 56.9338 32.9483 56.4002C32.7106 56.1575 32.5778 55.8343 32.5778 55.4981C32.5778 55.1619 32.7106 54.8387 32.9483 54.596L44.3234 43.4661L49.1798 48.1925C51.647 50.6065 55.9062 50.5811 58.3733 48.1925C60.9184 45.7023 60.9184 41.6874 58.3733 39.1971L53.5429 34.4707L54.27 33.7592C56.2957 31.7772 59.594 31.7772 61.6196 33.7592L72.6311 44.5334C74.6568 46.5154 74.6568 49.7426 72.6311 51.7246L51.3354 72.5613ZM76.2929 55.3329C78.2385 53.4238 79.331 50.8377 79.331 48.1417C79.331 45.4456 78.2385 42.8596 76.2929 40.9505L65.2815 30.1763C63.3303 28.2727 60.6873 27.2037 57.9318 27.2037C55.1764 27.2037 52.5334 28.2727 50.5822 30.1763L49.8551 30.8878L49.1279 30.1763C47.1767 28.2727 44.5337 27.2037 41.7783 27.2037C39.0228 27.2037 36.3798 28.2727 34.4287 30.1763L25.2351 39.1717C23.4782 40.8849 22.4073 43.1576 22.2167 45.5773C22.0261 47.9971 22.7285 50.4035 24.1963 52.3599L27.962 48.6753C27.46 47.7162 27.2825 46.6258 27.4553 45.5616C27.628 44.4973 28.1419 43.5144 28.9229 42.7546L38.1164 33.7592C40.1421 31.7772 43.4404 31.7772 45.4661 33.7592L54.7115 42.8054C55.179 43.2628 55.2569 44.076 54.7115 44.6096C54.1661 45.1432 53.3351 45.067 52.8676 44.6096L44.3234 36.2749L29.2605 50.9877C26.7154 53.4525 26.7154 57.4928 29.2605 59.9831C30.2734 60.9741 31.5719 61.5839 32.9483 61.7618C33.1302 63.1282 33.7688 64.3974 34.7646 65.3718C35.7604 66.3461 37.0576 66.9709 38.4541 67.1489C38.6359 68.5153 39.2745 69.7845 40.2703 70.7588C41.2661 71.7332 42.5633 72.358 43.9598 72.5359C44.1416 73.9081 44.7649 75.1532 45.7777 76.1443C46.9983 77.3386 48.6345 77.9992 50.3745 77.9992C52.1145 77.9992 53.7506 77.3386 54.9712 76.1443L76.2929 55.3329Z" fill="#EFB91C"/>
<path d="M77.7437 47.8394C72.717 42.0191 62.3463 30.2197 61.0764 29.5847L50.7585 32.7595C51.2876 33.8177 52.5046 36.0929 53.1396 36.7279C53.7745 37.3628 57.108 42.2836 58.6953 44.6647L54.7269 47.8394L43.6154 39.9026L29.3292 54.1888L49.9648 75.6182L64.2511 62.9193L77.7437 47.8394Z" fill="#EFB91C"/>
</svg>
