<svg width="34" height="47" viewBox="0 0 34 47" fill="none" xmlns="http://www.w3.org/2000/svg">
<g clip-path="url(#clip0_13_231)">
<path d="M29.4066 30.6233L33.9991 30.6457C33.8754 31.2284 33.721 31.8044 33.5368 32.3712C33.4181 32.7353 33.2422 33.2343 32.9935 33.8143C32.7373 34.4124 32.447 34.9954 32.1239 35.5607C31.9427 35.8774 31.7626 36.1688 31.5889 36.4343C31.2562 36.942 30.8967 37.4318 30.5117 37.9017C30.3052 38.1534 30.0034 38.5068 29.6161 38.9101C29.2039 39.3389 28.8132 39.7008 28.468 39.9996C28.0135 40.3931 27.5383 40.7626 27.0446 41.1066C26.6053 41.4125 26.2221 41.6485 25.9395 41.8162C25.399 42.134 24.8411 42.4219 24.2685 42.6786C23.903 42.8422 23.4656 43.0225 22.9656 43.1988C22.7041 43.2907 22.3424 43.411 21.905 43.535C21.5512 43.6343 21.2268 43.7127 20.9453 43.7747V39.2018C21.1427 39.1424 21.3922 39.0614 21.6766 38.9542C21.8206 38.8997 22.1664 38.7656 22.6012 38.5576C22.6796 38.5202 22.9633 38.3828 23.3262 38.1792C23.5172 38.072 23.8299 37.8901 24.2033 37.6418C24.4723 37.4625 24.6878 37.3056 24.834 37.1936C25.1872 36.9285 25.5267 36.646 25.8513 36.3473C26.0164 36.1957 26.1441 36.0705 26.2187 35.9962C26.3882 35.8281 26.6806 35.5282 27.0009 35.1458C27.3774 34.6956 27.7218 34.2199 28.0314 33.7221C28.4223 33.0907 28.7553 32.4259 29.0264 31.7355C29.202 31.2982 29.3233 30.9168 29.4066 30.6233Z" fill="white"/>
<path d="M9.16352 12.0947V17.3982C8.2316 18.1327 7.41267 18.9979 6.73256 19.9666C6.45426 20.3624 6.1995 20.7739 5.96958 21.1991C5.72802 21.6473 5.51412 22.1097 5.32906 22.5836C4.32918 25.1435 4.19419 27.9558 4.94437 30.5982C5.365 32.0787 6.05797 33.4695 6.98839 34.7005C7.32651 35.1485 7.69417 35.5738 8.08895 35.9737C8.45594 36.3472 8.78448 36.6322 9.02185 36.829C9.38335 37.1284 9.76134 37.4077 10.1541 37.6656C10.3685 37.8068 10.6623 37.9905 11.0207 38.1885C11.4193 38.4073 11.761 38.5676 12.0003 38.674C12.3224 38.8167 12.7022 38.9687 13.1351 39.1128V43.7153C12.796 43.6331 12.391 43.5248 11.9389 43.3791C11.3556 43.1924 10.8549 43.0008 10.4498 42.8301C9.85076 42.5776 9.3764 42.3382 9.07046 42.1765C8.46762 41.8583 8.00418 41.5666 7.72348 41.3836C7.21226 41.0498 6.7196 40.6889 6.24764 40.3024C5.33592 39.5553 4.50665 38.7145 3.77372 37.7941C3.5827 37.5543 3.2549 37.1285 2.88491 36.5664C2.49914 35.9779 2.1496 35.3667 1.83822 34.7364C1.56562 34.1838 1.32153 33.6179 1.1069 33.0408C0.860949 32.3801 0.653382 31.7059 0.485215 31.0217C0.099707 29.539 -0.057803 28.0072 0.0180099 26.4779C0.0544892 25.7194 0.141083 24.9641 0.277233 24.2169C0.401286 23.5273 0.566351 22.8456 0.771564 22.1754C0.948034 21.5984 1.15466 21.031 1.39061 20.4753C1.58503 20.0185 1.76286 19.6563 1.87816 19.4296C2.16376 18.8693 2.43315 18.4167 2.63171 18.1011C2.9331 17.6225 3.25867 17.1593 3.60719 16.7132C3.86302 16.3857 4.21003 15.9662 4.64823 15.5042C5.21802 14.9032 5.83128 14.3441 6.48313 13.8314C6.74687 13.6245 7.18996 13.288 7.77058 12.9112C8.26943 12.5855 8.74078 12.3155 9.16352 12.0947Z" fill="white"/>
<path d="M33.8649 23.0815C33.7278 22.5321 33.5759 22.041 33.4275 21.6145C33.2349 21.0604 33.0135 20.5165 32.7644 19.985C32.5247 19.4729 32.2851 19.0285 32.0688 18.6565C31.781 18.1612 31.5089 17.7512 31.2897 17.4386C31.0436 17.0875 30.6955 16.6195 30.2437 16.094C29.8364 15.6216 29.4035 15.1715 28.9469 14.7457C28.5324 14.3599 28.1718 14.0623 27.9209 13.8632C27.3478 13.4089 26.7457 12.9918 26.1184 12.6143C25.7793 12.4096 25.3411 12.1624 24.8174 11.9047V17.0819C24.9967 17.216 25.2254 17.3949 25.4824 17.6156C26.1903 18.2274 26.8311 18.9116 27.3942 19.6567C27.6703 20.0242 27.8708 20.3323 27.9842 20.5127C28.5009 21.3378 28.9201 22.2192 29.2332 23.1394L33.8649 23.0815Z" fill="white"/>
<path d="M22.5665 10.9807C22.1897 10.8574 21.6351 10.6912 20.9565 10.5396V7.18645C20.9269 6.2485 20.7524 5.32058 20.4392 4.43501C19.4863 1.80046 17.5794 0.762925 17.0482 0.500366C16.4397 0.849573 14.8395 1.89234 13.8584 4.24827C13.3735 5.41204 13.2009 6.50896 13.1361 7.2675V10.6008C12.6926 10.7065 12.3332 10.8115 12.1052 10.8809C11.7462 10.9908 11.2922 11.1424 10.7756 11.3482C10.4113 11.4931 10.091 11.6354 9.81934 11.7631C9.81934 13.4684 9.81934 15.174 9.81934 16.8798C10.7122 16.2505 11.6834 15.7383 12.7088 15.356C12.8388 15.3075 12.982 15.2567 13.138 15.2066V46.5045H15.5644C15.5584 35.8896 15.5523 25.2752 15.546 14.6613C16.2115 14.5764 16.8827 14.5437 17.5534 14.5635C17.8925 14.5732 18.2034 14.5956 18.4863 14.6244L18.5203 46.5045H20.9471C20.9503 36.044 20.9536 25.5837 20.9569 15.1237C21.1276 15.1764 21.2839 15.2283 21.4248 15.278C22.3901 15.6168 23.3102 16.0705 24.1651 16.6292V11.5928C23.643 11.3622 23.1094 11.1579 22.5665 10.9807ZM18.4799 10.1743L18.4958 10.1766L18.4799 10.1743ZM18.9588 8.16759C18.9264 8.28569 18.8742 8.39754 18.8043 8.4985C18.7286 8.6046 18.6346 8.69664 18.5267 8.7704C18.4263 8.83818 18.3163 8.8908 18.2004 8.92651C18.1185 8.95314 18.0347 8.97385 17.9498 8.98851C17.8745 9.00195 17.8093 9.00942 17.7595 9.01353V9.6182H17.2825V9.02586H16.8304V9.61745H16.353V9.02586H15.4597V8.44061H15.8293C15.8567 8.43991 15.8831 8.43048 15.9047 8.41372C15.9323 8.39294 15.9522 8.36364 15.9612 8.33043C15.9612 8.29981 15.9638 8.25574 15.9657 8.19785C15.9785 7.74556 15.9695 7.52856 15.9657 7.04005V5.54799C15.9654 5.52485 15.9598 5.50209 15.9491 5.48151C15.9418 5.46761 15.9323 5.455 15.9209 5.44416C15.9116 5.43553 15.9014 5.42801 15.8903 5.42175C15.8686 5.41033 15.8445 5.40418 15.8199 5.40382H15.4593V4.81857H16.3527V4.2281H16.8297V4.81857H17.2818V4.2281H17.7588V4.84248C17.9049 4.86044 18.0473 4.90089 18.1808 4.96236C18.2926 5.01037 18.3958 5.07609 18.4863 5.15695C18.6651 5.31772 18.7814 5.53551 18.8149 5.77245C18.8412 5.93186 18.8344 6.09491 18.7949 6.25163C18.7709 6.34402 18.7343 6.43273 18.686 6.51531C18.6328 6.60408 18.5654 6.68368 18.4863 6.75097C18.5502 6.80123 18.6108 6.85537 18.6679 6.91307C18.7196 6.96256 18.7671 7.01614 18.81 7.07329C18.8794 7.16999 18.9313 7.27792 18.9633 7.39224C18.997 7.50613 19.0137 7.62427 19.0131 7.74294C19.0165 7.88641 18.9981 8.02957 18.9584 8.16759H18.9588ZM18.0583 7.34817C18.009 7.31116 17.9528 7.28425 17.8929 7.26899C17.8494 7.25483 17.8046 7.24483 17.7592 7.23912C17.7132 7.23277 17.6461 7.22455 17.5602 7.21932C17.4374 7.21148 17.3477 7.21447 17.2822 7.21596C17.1785 7.21857 17.0271 7.22007 16.83 7.21596V8.25723C17.0271 8.24976 17.1785 8.25275 17.2822 8.25723C17.324 8.25723 17.4329 8.26358 17.5783 8.25536C17.639 8.25313 17.6994 8.24677 17.7592 8.23632C17.8481 8.22533 17.9337 8.19525 18.0097 8.14817C18.0736 8.10641 18.1255 8.04904 18.1604 7.9816C18.1945 7.90665 18.2097 7.82464 18.2049 7.74257C18.2096 7.67395 18.2015 7.60505 18.1808 7.5394C18.1597 7.46517 18.1171 7.39869 18.0583 7.34817V7.34817ZM17.408 6.44845C17.4385 6.44845 17.4626 6.44845 17.4962 6.44845C17.5651 6.44664 17.6337 6.43952 17.7015 6.42716C17.741 6.42076 17.7799 6.41076 17.8176 6.39729C17.8542 6.38602 17.8887 6.36913 17.92 6.34724C17.9726 6.30507 18.0104 6.24757 18.0282 6.18291C18.0421 6.13587 18.0489 6.08702 18.0482 6.038C18.052 5.98084 18.0472 5.92342 18.0338 5.86769C18.028 5.83114 18.0147 5.79615 17.9948 5.76483C17.9749 5.7335 17.9489 5.7065 17.9182 5.68543C17.8991 5.67218 17.8788 5.6608 17.8575 5.65144C17.8259 5.63697 17.793 5.62559 17.7592 5.61745C17.7256 5.60924 17.6966 5.60363 17.674 5.5999C17.6416 5.5943 17.616 5.59168 17.5964 5.58944C17.5964 5.58944 17.5587 5.58533 17.521 5.58347C17.3862 5.57525 17.1009 5.57898 17.1009 5.57898C17.0358 5.57898 16.9431 5.57898 16.8297 5.57898V6.44995L17.408 6.44845Z" fill="#EFB91C"/>
</g>
<defs>
<clipPath id="clip0_13_231">
<rect width="34" height="46" fill="white" transform="translate(0 0.5)"/>
</clipPath>
</defs>
</svg>
